<svg width="526" height="1002" viewBox="0 0 526 1002" fill="none" xmlns="http://www.w3.org/2000/svg">
<g id="Group 30">
<g id="Group 2">
<g id="iPhone-X-Mockup">
<g id="phone">
<rect id="Rectangle 3" y="2" width="525" height="998.86" rx="35" fill="#213648"/>
<g id="frame">
<path id="reflect-frame-top" opacity="0.595562" fill-rule="evenodd" clip-rule="evenodd" d="M455.497 0H69.8451C51.8401 1.09791 35.2348 9.31387 20.0293 24.6479C29.8082 16.1118 47.2497 4.68913 70.3093 4.68913C70.3093 4.68913 439.66 4.68913 455.033 4.68913C478.093 4.68913 495.534 16.1118 505.313 24.6479C490.108 9.31387 473.502 1.09791 455.497 0Z" fill="url(#paint0_linear_0_4910)" fill-opacity="0.65"/>
<path id="reflect-frame-right" opacity="0.75" fill-rule="evenodd" clip-rule="evenodd" d="M509.999 925.342V69.9636C509.999 47.013 501.564 38.5289 496.532 33.081C491.5 27.6331 491.286 24.8545 498.516 28.9677C505.746 33.081 520.207 45.0611 520.207 69.9636V925.342C520.207 950.244 505.746 962.224 498.516 966.338C491.286 970.451 491.5 967.672 496.532 962.224C501.564 956.776 509.999 948.292 509.999 925.342Z" fill="url(#paint1_linear_0_4910)"/>
<path id="reflect-frame-left" opacity="0.75" fill-rule="evenodd" clip-rule="evenodd" d="M15.3439 925.342V69.9636C15.3439 47.013 23.7788 38.5289 28.8106 33.081C33.8425 27.6331 34.0566 24.8545 26.8268 28.9677C19.5969 33.081 5.13595 45.0611 5.13595 69.9636V925.342C5.13595 950.244 19.5969 962.224 26.8268 966.338C34.0566 970.451 33.8425 967.672 28.8106 962.224C23.7788 956.776 15.3439 948.292 15.3439 925.342Z" fill="url(#paint2_linear_0_4910)"/>
</g>
<g id="controls">
<path id="vol+" fill-rule="evenodd" clip-rule="evenodd" d="M0 207.113C0 204.904 1.79086 203.113 4 203.113H5.92908C8.13822 203.113 9.92908 204.904 9.92908 207.113V327.815C9.92908 330.024 8.13822 331.815 5.92908 331.815H4C1.79086 331.815 0 330.024 0 327.815V207.113Z" fill="#2E423C"/>
<path id="power" fill-rule="evenodd" clip-rule="evenodd" d="M515.071 312.087C515.071 309.878 516.862 308.087 519.071 308.087H521C523.209 308.087 525 309.878 525 312.087V397.987C525 400.196 523.209 401.987 521 401.987H519.071C516.862 401.987 515.071 400.196 515.071 397.987V312.087Z" fill="#2E423C"/>
</g>
</g>
<g id="Screen" clip-path="url(#clip0_0_4910)">
<path id="Screen Mask" fill-rule="evenodd" clip-rule="evenodd" d="M217.352 24.8889L68.5396 24.8889C46.3307 24.8889 30.1484 40.0155 30.1484 59.7717V904.551C30.1484 930.311 55.153 953.135 83.4268 953.135H442.093C469.328 953.135 495.371 930.134 495.371 904.551V62.0553C495.371 38.376 477.792 25.0297 456.98 24.8889L305.808 24.8889C305.235 24.9828 294.851 29.2524 290.462 40.0155C286.073 50.7786 277.242 59.3586 267.573 59.3586H256.343C251.747 59.3586 239.647 54.8992 233.521 40.0155C227.394 25.1318 217.925 24.9828 217.352 24.8889Z" fill="white"/>
<mask id="mask0_0_4910" style="mask-type:alpha" maskUnits="userSpaceOnUse" x="30" y="24" width="466" height="930">
<path id="Screen Mask_2" fill-rule="evenodd" clip-rule="evenodd" d="M217.352 24.8889L68.5396 24.8889C46.3307 24.8889 30.1484 40.0155 30.1484 59.7717V904.551C30.1484 930.311 55.153 953.135 83.4268 953.135H442.093C469.328 953.135 495.371 930.134 495.371 904.551V62.0553C495.371 38.376 477.792 25.0297 456.98 24.8889L305.808 24.8889C305.235 24.9828 294.851 29.2524 290.462 40.0155C286.073 50.7786 277.242 59.3586 267.573 59.3586H256.343C251.747 59.3586 239.647 54.8992 233.521 40.0155C227.394 25.1318 217.925 24.9828 217.352 24.8889Z" fill="white"/>
</mask>
<g mask="url(#mask0_0_4910)">
<rect id="Rectangle" x="30" y="24.8889" width="466" height="930" fill="url(#paint3_linear_0_4910)"/>
<path id="12:49" d="M189.008 282V247.344H180.752V242.064C183.397 242.064 185.531 241.819 187.152 241.328C188.795 240.816 190.021 240.091 190.832 239.152C191.643 238.192 192.123 237.051 192.272 235.728H198.48V282H189.008ZM208.991 282V277.392V275.024C208.991 272.677 209.428 270.651 210.303 268.944C211.178 267.216 212.33 265.723 213.759 264.464C215.21 263.184 216.788 262.064 218.495 261.104C220.223 260.144 221.951 259.237 223.679 258.384C225.407 257.531 226.986 256.677 228.415 255.824C229.866 254.949 231.028 253.979 231.903 252.912C232.778 251.845 233.215 250.587 233.215 249.136C233.215 247.28 232.564 245.765 231.263 244.592C229.983 243.419 228.223 242.832 225.983 242.832C223.658 242.832 221.684 243.504 220.063 244.848C218.442 246.192 217.439 248.219 217.055 250.928H208.127C208.17 247.984 208.852 245.317 210.175 242.928C211.519 240.517 213.524 238.608 216.191 237.2C218.858 235.792 222.207 235.088 226.239 235.088C229.695 235.088 232.671 235.675 235.167 236.848C237.684 238.021 239.626 239.653 240.991 241.744C242.356 243.835 243.039 246.277 243.039 249.072C243.039 251.397 242.612 253.403 241.759 255.088C240.906 256.773 239.775 258.213 238.367 259.408C236.959 260.603 235.412 261.648 233.727 262.544C232.042 263.44 230.356 264.272 228.671 265.04C227.007 265.808 225.471 266.597 224.063 267.408C222.655 268.197 221.524 269.093 220.671 270.096C219.818 271.099 219.391 272.304 219.391 273.712V274.128H242.975V282H208.991ZM259.408 249.712V259.728H249.168V249.712H259.408ZM259.408 271.824V281.808H249.168V271.824H259.408ZM286.903 235.728H296.087V263.92H303.223V271.76H296.087V282H287.095L287.127 271.76H265.815V264.08L286.903 235.728ZM274.455 263.92H287.127V246.96L274.455 263.92ZM324.871 282.704C321.991 282.704 319.303 282.149 316.807 281.04C314.311 279.931 312.273 278.373 310.695 276.368C309.116 274.341 308.231 271.973 308.039 269.264H316.935C317.319 271.056 318.172 272.517 319.495 273.648C320.817 274.757 322.481 275.312 324.487 275.312C326.705 275.312 328.647 274.789 330.311 273.744C331.996 272.699 333.255 271.035 334.087 268.752C334.94 266.469 335.239 263.483 334.983 259.792C334.385 260.923 333.553 261.915 332.487 262.768C331.441 263.6 330.215 264.251 328.807 264.72C327.399 265.168 325.831 265.392 324.103 265.392C320.967 265.392 318.183 264.805 315.751 263.632C313.34 262.437 311.441 260.752 310.055 258.576C308.689 256.379 308.007 253.776 308.007 250.768C308.007 247.739 308.732 245.04 310.183 242.672C311.633 240.304 313.66 238.448 316.263 237.104C318.865 235.76 321.916 235.088 325.415 235.088C329.34 235.088 332.721 236.027 335.559 237.904C338.417 239.76 340.604 242.405 342.119 245.84C343.655 249.253 344.423 253.275 344.423 257.904C344.423 263.429 343.633 268.037 342.055 271.728C340.497 275.397 338.257 278.149 335.335 279.984C332.412 281.797 328.924 282.704 324.871 282.704ZM325.703 257.968C327.004 257.968 328.263 257.68 329.479 257.104C330.716 256.507 331.729 255.76 332.519 254.864C333.308 253.968 333.703 253.04 333.703 252.08C333.724 250.011 333.393 248.24 332.711 246.768C332.049 245.275 331.111 244.133 329.895 243.344C328.7 242.555 327.303 242.16 325.703 242.16C324.231 242.16 322.919 242.501 321.767 243.184C320.615 243.867 319.708 244.827 319.047 246.064C318.385 247.301 318.055 248.731 318.055 250.352C318.055 252.763 318.759 254.64 320.167 255.984C321.575 257.307 323.42 257.968 325.703 257.968Z" fill="white"/>
</g>
</g>
</g>
</g>
<g id="Group 29" clip-path="url(#clip1_0_4910)">
<g id="Rectangle_2" filter="url(#filter0_d_0_4910)">
<rect x="44" y="334" width="436" height="174" rx="5" fill="#FBFCFE"/>
</g>
<g id="Group 28" clip-path="url(#clip2_0_4910)">
<path id="PayAPI" d="M77.62 386V371.54H82.94C83.9933 371.54 84.9367 371.723 85.77 372.09C86.6033 372.45 87.26 372.983 87.74 373.69C88.2267 374.397 88.47 375.26 88.47 376.28C88.47 377.24 88.2567 378.06 87.83 378.74C87.4033 379.42 86.8033 379.94 86.03 380.3C85.2633 380.66 84.36 380.84 83.32 380.84H80.56V386H77.62ZM80.53 378.58H83.24C83.9733 378.58 84.5733 378.347 85.04 377.88C85.5067 377.407 85.74 376.823 85.74 376.13C85.74 375.41 85.4933 374.84 85 374.42C84.5067 373.993 83.9067 373.78 83.2 373.78H80.53V378.58ZM93.0234 386.2C92.3634 386.2 91.7701 386.077 91.2434 385.83C90.7168 385.583 90.3001 385.227 89.9934 384.76C89.6868 384.287 89.5334 383.713 89.5334 383.04C89.5334 381.907 89.9568 381.047 90.8034 380.46C91.6501 379.867 92.9868 379.56 94.8134 379.54L96.1034 379.52V378.9C96.1034 378.427 95.9634 378.063 95.6834 377.81C95.4101 377.55 94.9834 377.423 94.4034 377.43C93.9768 377.437 93.5701 377.537 93.1834 377.73C92.8034 377.923 92.5434 378.26 92.4034 378.74H89.9734C90.0134 377.993 90.2301 377.38 90.6234 376.9C91.0168 376.413 91.5501 376.053 92.2234 375.82C92.9034 375.58 93.6734 375.46 94.5334 375.46C95.5934 375.46 96.4434 375.593 97.0834 375.86C97.7234 376.12 98.1868 376.497 98.4734 376.99C98.7601 377.477 98.9034 378.057 98.9034 378.73V386H96.4634L96.2234 384.22C95.8701 384.967 95.4268 385.483 94.8934 385.77C94.3668 386.057 93.7434 386.2 93.0234 386.2ZM94.0034 384.28C94.2701 384.28 94.5268 384.233 94.7734 384.14C95.0268 384.04 95.2501 383.91 95.4434 383.75C95.6434 383.583 95.8034 383.397 95.9234 383.19C96.0434 382.983 96.1034 382.77 96.1034 382.55V381.02L95.0534 381.04C94.5668 381.047 94.1134 381.107 93.6934 381.22C93.2734 381.327 92.9334 381.503 92.6734 381.75C92.4201 381.997 92.2934 382.33 92.2934 382.75C92.2934 383.23 92.4601 383.607 92.7934 383.88C93.1268 384.147 93.5301 384.28 94.0034 384.28ZM102.727 389.3C102.021 389.3 101.521 389.24 101.227 389.12C100.941 389.007 100.797 388.95 100.797 388.95V387.09L101.817 387.13C102.264 387.157 102.624 387.133 102.897 387.06C103.171 386.993 103.377 386.903 103.517 386.79C103.664 386.677 103.767 386.557 103.827 386.43C103.887 386.31 103.931 386.213 103.957 386.14L104.147 385.57L100.127 375.66H103.017L105.497 382.4L108.007 375.66H110.857L106.667 386.06C106.307 386.94 105.927 387.613 105.527 388.08C105.127 388.547 104.694 388.867 104.227 389.04C103.767 389.213 103.267 389.3 102.727 389.3ZM110.437 386L115.617 371.54H118.697L123.867 386H120.957L119.777 382.65H114.577L113.367 386H110.437ZM115.227 380.1H119.077L117.167 374.36L115.227 380.1ZM126.038 386V371.54H131.358C132.411 371.54 133.355 371.723 134.188 372.09C135.021 372.45 135.678 372.983 136.158 373.69C136.645 374.397 136.888 375.26 136.888 376.28C136.888 377.24 136.675 378.06 136.248 378.74C135.821 379.42 135.221 379.94 134.448 380.3C133.681 380.66 132.778 380.84 131.738 380.84H128.978V386H126.038ZM128.948 378.58H131.658C132.391 378.58 132.991 378.347 133.458 377.88C133.925 377.407 134.158 376.823 134.158 376.13C134.158 375.41 133.911 374.84 133.418 374.42C132.925 373.993 132.325 373.78 131.618 373.78H128.948V378.58ZM139.085 371.54H141.995V386H139.085V371.54Z" fill="#BA4270"/>
<path id="Just Now" opacity="0.5" d="M371.238 382.59C371.238 383.357 371.151 384.01 370.978 384.55C370.804 385.09 370.494 385.5 370.048 385.78C369.608 386.06 368.981 386.2 368.168 386.2C367.654 386.2 367.171 386.14 366.718 386.02C366.271 385.9 365.974 385.81 365.828 385.75L365.958 383.98C366.164 384.053 366.401 384.147 366.668 384.26C366.941 384.367 367.278 384.42 367.678 384.42C368.331 384.42 368.778 384.24 369.018 383.88C369.264 383.52 369.388 382.913 369.388 382.06V371.54H371.238V382.59ZM378.101 386.2C377.561 386.193 377.051 386.117 376.571 385.97C376.098 385.817 375.678 385.593 375.311 385.3C374.944 385.007 374.654 384.643 374.441 384.21C374.234 383.77 374.131 383.26 374.131 382.68V375.66H375.981V382.49C375.981 383.163 376.188 383.71 376.601 384.13C377.021 384.55 377.651 384.76 378.491 384.76C379.251 384.76 379.861 384.563 380.321 384.17C380.788 383.77 381.021 383.177 381.021 382.39V375.66H382.861V386H381.391L381.201 384.02C381.074 384.54 380.858 384.96 380.551 385.28C380.251 385.6 379.888 385.837 379.461 385.99C379.041 386.137 378.588 386.207 378.101 386.2ZM389.416 386.2C388.696 386.2 388.026 386.09 387.406 385.87C386.793 385.643 386.283 385.293 385.876 384.82C385.47 384.34 385.213 383.73 385.106 382.99H386.786C386.88 383.397 387.046 383.737 387.286 384.01C387.533 384.277 387.84 384.48 388.206 384.62C388.573 384.753 388.973 384.82 389.406 384.82C390.1 384.82 390.66 384.69 391.086 384.43C391.513 384.17 391.726 383.77 391.726 383.23C391.726 382.85 391.613 382.547 391.386 382.32C391.166 382.087 390.823 381.917 390.356 381.81L388.216 381.28C387.383 381.08 386.716 380.767 386.216 380.34C385.716 379.913 385.466 379.317 385.466 378.55C385.46 377.943 385.603 377.41 385.896 376.95C386.19 376.49 386.63 376.127 387.216 375.86C387.803 375.593 388.533 375.46 389.406 375.46C390.526 375.46 391.43 375.713 392.116 376.22C392.81 376.72 393.17 377.457 393.196 378.43H391.566C391.5 377.937 391.276 377.547 390.896 377.26C390.523 376.967 390.02 376.82 389.386 376.82C388.726 376.82 388.19 376.953 387.776 377.22C387.363 377.48 387.156 377.887 387.156 378.44C387.156 378.807 387.303 379.097 387.596 379.31C387.89 379.517 388.323 379.69 388.896 379.83L390.966 380.35C391.446 380.477 391.84 380.643 392.146 380.85C392.46 381.057 392.706 381.287 392.886 381.54C393.073 381.793 393.203 382.06 393.276 382.34C393.356 382.613 393.396 382.877 393.396 383.13C393.396 383.763 393.236 384.31 392.916 384.77C392.603 385.223 392.15 385.577 391.556 385.83C390.97 386.077 390.256 386.2 389.416 386.2ZM401 377.01H398.67V383.44C398.67 383.807 398.706 384.077 398.78 384.25C398.86 384.417 398.99 384.523 399.17 384.57C399.356 384.617 399.61 384.64 399.93 384.64H401.06V385.88C400.933 385.927 400.74 385.967 400.48 386C400.226 386.033 399.91 386.05 399.53 386.05C398.816 386.05 398.263 385.953 397.87 385.76C397.476 385.567 397.2 385.28 397.04 384.9C396.886 384.52 396.81 384.053 396.81 383.5V377.01H395.13V375.66H396.86L397.31 372.65H398.67V375.65H401V377.01ZM418.056 371.54H419.906V386H418.256L410.496 374.6V386H408.646V371.54H410.416L418.056 382.78V371.54ZM427.317 386.2C426.364 386.2 425.531 385.997 424.817 385.59C424.104 385.177 423.551 384.573 423.157 383.78C422.764 382.987 422.567 382.017 422.567 380.87C422.567 379.79 422.751 378.843 423.117 378.03C423.484 377.217 424.021 376.587 424.727 376.14C425.441 375.687 426.304 375.46 427.317 375.46C428.271 375.46 429.097 375.67 429.797 376.09C430.504 376.503 431.051 377.113 431.437 377.92C431.824 378.727 432.017 379.71 432.017 380.87C432.017 381.923 431.837 382.85 431.477 383.65C431.124 384.45 430.597 385.077 429.897 385.53C429.204 385.977 428.344 386.2 427.317 386.2ZM427.317 384.74C427.937 384.74 428.461 384.583 428.887 384.27C429.314 383.957 429.637 383.507 429.857 382.92C430.077 382.333 430.187 381.637 430.187 380.83C430.187 380.09 430.091 379.427 429.897 378.84C429.704 378.247 429.394 377.777 428.967 377.43C428.547 377.083 427.997 376.91 427.317 376.91C426.691 376.91 426.161 377.067 425.727 377.38C425.294 377.687 424.964 378.133 424.737 378.72C424.517 379.307 424.407 380.01 424.407 380.83C424.407 381.557 424.507 382.217 424.707 382.81C424.907 383.403 425.221 383.873 425.647 384.22C426.074 384.567 426.631 384.74 427.317 384.74ZM447.667 375.66L444.537 386H442.717L440.357 378.37L438.117 386H436.307L433.117 375.66H434.827L437.197 383.61H437.357L439.687 375.66H441.087L443.507 383.59H443.667L445.937 375.66H447.667Z" fill="#36536B"/>
</g>
<path id="The payment has been" d="M76.46 405.24V403.54H87.4V405.24H82.99V418H81.13V405.24H76.46ZM89.405 418V403.14H91.205V409.18C91.3783 408.893 91.6117 408.627 91.905 408.38C92.1983 408.127 92.555 407.923 92.975 407.77C93.395 407.61 93.8817 407.53 94.435 407.53C95.1083 407.53 95.7183 407.657 96.265 407.91C96.8117 408.157 97.245 408.51 97.565 408.97C97.885 409.43 98.045 409.977 98.045 410.61V418H96.195V410.98C96.195 410.36 95.9817 409.883 95.555 409.55C95.135 409.21 94.585 409.04 93.905 409.04C93.445 409.04 93.0117 409.117 92.605 409.27C92.1983 409.417 91.8683 409.643 91.615 409.95C91.3683 410.25 91.245 410.633 91.245 411.1V418H89.405ZM102.248 413.26C102.248 413.913 102.355 414.507 102.568 415.04C102.788 415.567 103.118 415.987 103.558 416.3C104.005 416.613 104.562 416.77 105.228 416.77C105.888 416.77 106.455 416.617 106.928 416.31C107.408 416.003 107.715 415.56 107.848 414.98H109.598C109.472 415.68 109.192 416.27 108.758 416.75C108.325 417.23 107.802 417.593 107.188 417.84C106.575 418.08 105.935 418.2 105.268 418.2C104.302 418.2 103.452 417.99 102.718 417.57C101.985 417.15 101.412 416.547 100.998 415.76C100.585 414.973 100.378 414.03 100.378 412.93C100.378 411.843 100.565 410.89 100.938 410.07C101.312 409.25 101.852 408.61 102.558 408.15C103.272 407.69 104.128 407.46 105.128 407.46C106.102 407.46 106.925 407.67 107.598 408.09C108.272 408.51 108.782 409.103 109.128 409.87C109.482 410.63 109.658 411.533 109.658 412.58V413.26H102.248ZM102.258 412.01H107.878C107.878 411.417 107.778 410.883 107.578 410.41C107.378 409.93 107.072 409.553 106.658 409.28C106.252 409 105.738 408.86 105.118 408.86C104.472 408.86 103.935 409.017 103.508 409.33C103.088 409.637 102.772 410.033 102.558 410.52C102.352 411 102.252 411.497 102.258 412.01ZM116.69 421.22V407.66H118.53L118.55 409.46C118.67 409.247 118.823 409.023 119.01 408.79C119.203 408.557 119.437 408.34 119.71 408.14C119.99 407.94 120.313 407.777 120.68 407.65C121.053 407.523 121.477 407.46 121.95 407.46C122.777 407.46 123.503 407.65 124.13 408.03C124.763 408.403 125.257 408.977 125.61 409.75C125.963 410.523 126.14 411.503 126.14 412.69C126.14 413.877 125.967 414.88 125.62 415.7C125.28 416.513 124.787 417.133 124.14 417.56C123.493 417.987 122.713 418.2 121.8 418.2C121.34 418.2 120.93 418.133 120.57 418C120.217 417.873 119.907 417.707 119.64 417.5C119.38 417.287 119.16 417.06 118.98 416.82C118.807 416.58 118.663 416.35 118.55 416.13V421.22H116.69ZM121.45 416.76C122.303 416.76 123 416.437 123.54 415.79C124.08 415.137 124.35 414.123 124.35 412.75C124.35 411.57 124.103 410.633 123.61 409.94C123.117 409.247 122.397 408.9 121.45 408.9C120.49 408.9 119.763 409.257 119.27 409.97C118.777 410.677 118.53 411.603 118.53 412.75C118.53 413.49 118.64 414.163 118.86 414.77C119.08 415.377 119.407 415.86 119.84 416.22C120.273 416.58 120.81 416.76 121.45 416.76ZM131.308 418.2C130.641 418.2 130.051 418.083 129.538 417.85C129.025 417.61 128.621 417.267 128.328 416.82C128.041 416.373 127.898 415.833 127.898 415.2C127.898 414.053 128.298 413.2 129.098 412.64C129.898 412.08 131.181 411.78 132.948 411.74L134.798 411.69V410.88C134.798 410.247 134.608 409.747 134.228 409.38C133.848 409.007 133.258 408.82 132.458 408.82C131.865 408.827 131.341 408.967 130.888 409.24C130.441 409.513 130.151 409.96 130.018 410.58H128.388C128.428 409.907 128.618 409.34 128.958 408.88C129.298 408.413 129.771 408.06 130.378 407.82C130.991 407.58 131.715 407.46 132.548 407.46C133.448 407.46 134.195 407.587 134.788 407.84C135.388 408.093 135.835 408.467 136.128 408.96C136.428 409.453 136.578 410.06 136.578 410.78V418H134.998L134.868 416.06C134.468 416.867 133.958 417.427 133.338 417.74C132.725 418.047 132.048 418.2 131.308 418.2ZM131.868 416.87C132.215 416.87 132.558 416.807 132.898 416.68C133.245 416.553 133.561 416.383 133.848 416.17C134.135 415.95 134.361 415.707 134.528 415.44C134.701 415.167 134.791 414.887 134.798 414.6V412.83L133.258 412.86C132.471 412.873 131.811 412.953 131.278 413.1C130.751 413.247 130.355 413.477 130.088 413.79C129.828 414.103 129.698 414.513 129.698 415.02C129.698 415.6 129.898 416.053 130.298 416.38C130.705 416.707 131.228 416.87 131.868 416.87ZM140.425 421.3C139.818 421.3 139.402 421.257 139.175 421.17C138.948 421.083 138.835 421.04 138.835 421.04V419.84L139.885 419.86C140.272 419.873 140.592 419.847 140.845 419.78C141.098 419.713 141.302 419.623 141.455 419.51C141.608 419.397 141.725 419.27 141.805 419.13C141.892 418.99 141.962 418.857 142.015 418.73L142.375 417.75L138.335 407.66H140.205L143.255 415.64L146.285 407.66H148.095L143.735 418.78C143.468 419.433 143.168 419.943 142.835 420.31C142.508 420.677 142.142 420.933 141.735 421.08C141.335 421.227 140.898 421.3 140.425 421.3ZM150.069 418V407.66H151.849V409.16C152.136 408.707 152.529 408.31 153.029 407.97C153.529 407.63 154.179 407.46 154.979 407.46C155.352 407.46 155.732 407.523 156.119 407.65C156.512 407.777 156.872 407.967 157.199 408.22C157.526 408.473 157.779 408.783 157.959 409.15C158.279 408.643 158.712 408.237 159.259 407.93C159.806 407.617 160.422 407.46 161.109 407.46C161.469 407.46 161.846 407.517 162.239 407.63C162.632 407.737 162.996 407.93 163.329 408.21C163.669 408.483 163.946 408.867 164.159 409.36C164.372 409.847 164.479 410.473 164.479 411.24V418H162.619V411.42C162.619 410.793 162.519 410.31 162.319 409.97C162.119 409.623 161.856 409.38 161.529 409.24C161.209 409.1 160.866 409.03 160.499 409.03C160.179 409.03 159.839 409.093 159.479 409.22C159.119 409.347 158.812 409.56 158.559 409.86C158.306 410.16 158.179 410.57 158.179 411.09V418H156.339V410.88C156.339 410.473 156.229 410.133 156.009 409.86C155.796 409.587 155.526 409.38 155.199 409.24C154.879 409.1 154.559 409.03 154.239 409.03C153.886 409.03 153.529 409.1 153.169 409.24C152.816 409.38 152.516 409.603 152.269 409.91C152.029 410.21 151.909 410.603 151.909 411.09V418H150.069ZM168.694 413.26C168.694 413.913 168.8 414.507 169.014 415.04C169.234 415.567 169.564 415.987 170.004 416.3C170.45 416.613 171.007 416.77 171.674 416.77C172.334 416.77 172.9 416.617 173.374 416.31C173.854 416.003 174.16 415.56 174.294 414.98H176.044C175.917 415.68 175.637 416.27 175.204 416.75C174.77 417.23 174.247 417.593 173.634 417.84C173.02 418.08 172.38 418.2 171.714 418.2C170.747 418.2 169.897 417.99 169.164 417.57C168.43 417.15 167.857 416.547 167.444 415.76C167.03 414.973 166.824 414.03 166.824 412.93C166.824 411.843 167.01 410.89 167.384 410.07C167.757 409.25 168.297 408.61 169.004 408.15C169.717 407.69 170.574 407.46 171.574 407.46C172.547 407.46 173.37 407.67 174.044 408.09C174.717 408.51 175.227 409.103 175.574 409.87C175.927 410.63 176.104 411.533 176.104 412.58V413.26H168.694ZM168.704 412.01H174.324C174.324 411.417 174.224 410.883 174.024 410.41C173.824 409.93 173.517 409.553 173.104 409.28C172.697 409 172.184 408.86 171.564 408.86C170.917 408.86 170.38 409.017 169.954 409.33C169.534 409.637 169.217 410.033 169.004 410.52C168.797 411 168.697 411.497 168.704 412.01ZM178.643 418V407.66H180.433V409.16C180.6 408.873 180.83 408.603 181.123 408.35C181.423 408.097 181.783 407.893 182.203 407.74C182.63 407.587 183.12 407.51 183.673 407.51C184.327 407.51 184.927 407.64 185.473 407.9C186.027 408.16 186.467 408.567 186.793 409.12C187.127 409.667 187.293 410.373 187.293 411.24V418H185.443V411.42C185.443 410.613 185.23 410.017 184.803 409.63C184.383 409.237 183.837 409.04 183.163 409.04C182.697 409.04 182.26 409.117 181.853 409.27C181.447 409.417 181.117 409.643 180.863 409.95C180.61 410.25 180.483 410.63 180.483 411.09V418H178.643ZM194.951 409.01H192.621V415.44C192.621 415.807 192.658 416.077 192.731 416.25C192.811 416.417 192.941 416.523 193.121 416.57C193.308 416.617 193.561 416.64 193.881 416.64H195.011V417.88C194.885 417.927 194.691 417.967 194.431 418C194.178 418.033 193.861 418.05 193.481 418.05C192.768 418.05 192.215 417.953 191.821 417.76C191.428 417.567 191.151 417.28 190.991 416.9C190.838 416.52 190.761 416.053 190.761 415.5V409.01H189.081V407.66H190.811L191.261 404.65H192.621V407.65H194.951V409.01ZM202.218 418V403.14H204.018V409.18C204.191 408.893 204.424 408.627 204.718 408.38C205.011 408.127 205.368 407.923 205.788 407.77C206.208 407.61 206.694 407.53 207.248 407.53C207.921 407.53 208.531 407.657 209.078 407.91C209.624 408.157 210.058 408.51 210.378 408.97C210.698 409.43 210.858 409.977 210.858 410.61V418H209.008V410.98C209.008 410.36 208.794 409.883 208.368 409.55C207.948 409.21 207.398 409.04 206.718 409.04C206.258 409.04 205.824 409.117 205.418 409.27C205.011 409.417 204.681 409.643 204.428 409.95C204.181 410.25 204.058 410.633 204.058 411.1V418H202.218ZM216.562 418.2C215.895 418.2 215.305 418.083 214.792 417.85C214.279 417.61 213.875 417.267 213.582 416.82C213.295 416.373 213.152 415.833 213.152 415.2C213.152 414.053 213.552 413.2 214.352 412.64C215.152 412.08 216.435 411.78 218.202 411.74L220.052 411.69V410.88C220.052 410.247 219.862 409.747 219.482 409.38C219.102 409.007 218.512 408.82 217.712 408.82C217.119 408.827 216.595 408.967 216.142 409.24C215.695 409.513 215.405 409.96 215.272 410.58H213.642C213.682 409.907 213.872 409.34 214.212 408.88C214.552 408.413 215.025 408.06 215.632 407.82C216.245 407.58 216.969 407.46 217.802 407.46C218.702 407.46 219.449 407.587 220.042 407.84C220.642 408.093 221.089 408.467 221.382 408.96C221.682 409.453 221.832 410.06 221.832 410.78V418H220.252L220.122 416.06C219.722 416.867 219.212 417.427 218.592 417.74C217.979 418.047 217.302 418.2 216.562 418.2ZM217.122 416.87C217.469 416.87 217.812 416.807 218.152 416.68C218.499 416.553 218.815 416.383 219.102 416.17C219.389 415.95 219.615 415.707 219.782 415.44C219.955 415.167 220.045 414.887 220.052 414.6V412.83L218.512 412.86C217.725 412.873 217.065 412.953 216.532 413.1C216.005 413.247 215.609 413.477 215.342 413.79C215.082 414.103 214.952 414.513 214.952 415.02C214.952 415.6 215.152 416.053 215.552 416.38C215.959 416.707 216.482 416.87 217.122 416.87ZM228.505 418.2C227.785 418.2 227.115 418.09 226.495 417.87C225.881 417.643 225.371 417.293 224.965 416.82C224.558 416.34 224.301 415.73 224.195 414.99H225.875C225.968 415.397 226.135 415.737 226.375 416.01C226.621 416.277 226.928 416.48 227.295 416.62C227.661 416.753 228.061 416.82 228.495 416.82C229.188 416.82 229.748 416.69 230.175 416.43C230.601 416.17 230.815 415.77 230.815 415.23C230.815 414.85 230.701 414.547 230.475 414.32C230.255 414.087 229.911 413.917 229.445 413.81L227.305 413.28C226.471 413.08 225.805 412.767 225.305 412.34C224.805 411.913 224.555 411.317 224.555 410.55C224.548 409.943 224.691 409.41 224.985 408.95C225.278 408.49 225.718 408.127 226.305 407.86C226.891 407.593 227.621 407.46 228.495 407.46C229.615 407.46 230.518 407.713 231.205 408.22C231.898 408.72 232.258 409.457 232.285 410.43H230.655C230.588 409.937 230.365 409.547 229.985 409.26C229.611 408.967 229.108 408.82 228.475 408.82C227.815 408.82 227.278 408.953 226.865 409.22C226.451 409.48 226.245 409.887 226.245 410.44C226.245 410.807 226.391 411.097 226.685 411.31C226.978 411.517 227.411 411.69 227.985 411.83L230.055 412.35C230.535 412.477 230.928 412.643 231.235 412.85C231.548 413.057 231.795 413.287 231.975 413.54C232.161 413.793 232.291 414.06 232.365 414.34C232.445 414.613 232.485 414.877 232.485 415.13C232.485 415.763 232.325 416.31 232.005 416.77C231.691 417.223 231.238 417.577 230.645 417.83C230.058 418.077 229.345 418.2 228.505 418.2ZM244.71 418.2C244.104 418.2 243.59 418.12 243.17 417.96C242.757 417.8 242.417 417.597 242.15 417.35C241.884 417.097 241.677 416.84 241.53 416.58C241.384 416.313 241.277 416.08 241.21 415.88L241.01 418H239.6V403.14H241.46V409.3C241.547 409.127 241.677 408.937 241.85 408.73C242.03 408.523 242.26 408.323 242.54 408.13C242.82 407.937 243.15 407.777 243.53 407.65C243.917 407.523 244.357 407.46 244.85 407.46C246.144 407.46 247.17 407.91 247.93 408.81C248.697 409.71 249.08 411.037 249.08 412.79C249.08 413.877 248.917 414.827 248.59 415.64C248.264 416.447 247.777 417.077 247.13 417.53C246.484 417.977 245.677 418.2 244.71 418.2ZM244.38 416.78C245.22 416.78 245.904 416.457 246.43 415.81C246.957 415.157 247.22 414.12 247.22 412.7C247.22 411.493 246.974 410.56 246.48 409.9C245.994 409.233 245.28 408.9 244.34 408.9C243.654 408.9 243.1 409.05 242.68 409.35C242.267 409.643 241.96 410.073 241.76 410.64C241.567 411.207 241.467 411.893 241.46 412.7C241.46 414.147 241.684 415.19 242.13 415.83C242.584 416.463 243.334 416.78 244.38 416.78ZM252.815 413.26C252.815 413.913 252.922 414.507 253.135 415.04C253.355 415.567 253.685 415.987 254.125 416.3C254.572 416.613 255.128 416.77 255.795 416.77C256.455 416.77 257.022 416.617 257.495 416.31C257.975 416.003 258.282 415.56 258.415 414.98H260.165C260.038 415.68 259.758 416.27 259.325 416.75C258.892 417.23 258.368 417.593 257.755 417.84C257.142 418.08 256.502 418.2 255.835 418.2C254.868 418.2 254.018 417.99 253.285 417.57C252.552 417.15 251.978 416.547 251.565 415.76C251.152 414.973 250.945 414.03 250.945 412.93C250.945 411.843 251.132 410.89 251.505 410.07C251.878 409.25 252.418 408.61 253.125 408.15C253.838 407.69 254.695 407.46 255.695 407.46C256.668 407.46 257.492 407.67 258.165 408.09C258.838 408.51 259.348 409.103 259.695 409.87C260.048 410.63 260.225 411.533 260.225 412.58V413.26H252.815ZM252.825 412.01H258.445C258.445 411.417 258.345 410.883 258.145 410.41C257.945 409.93 257.638 409.553 257.225 409.28C256.818 409 256.305 408.86 255.685 408.86C255.038 408.86 254.502 409.017 254.075 409.33C253.655 409.637 253.338 410.033 253.125 410.52C252.918 411 252.818 411.497 252.825 412.01ZM264.084 413.26C264.084 413.913 264.191 414.507 264.404 415.04C264.624 415.567 264.954 415.987 265.394 416.3C265.841 416.613 266.398 416.77 267.064 416.77C267.724 416.77 268.291 416.617 268.764 416.31C269.244 416.003 269.551 415.56 269.684 414.98H271.434C271.308 415.68 271.028 416.27 270.594 416.75C270.161 417.23 269.638 417.593 269.024 417.84C268.411 418.08 267.771 418.2 267.104 418.2C266.138 418.2 265.288 417.99 264.554 417.57C263.821 417.15 263.248 416.547 262.834 415.76C262.421 414.973 262.214 414.03 262.214 412.93C262.214 411.843 262.401 410.89 262.774 410.07C263.148 409.25 263.688 408.61 264.394 408.15C265.108 407.69 265.964 407.46 266.964 407.46C267.938 407.46 268.761 407.67 269.434 408.09C270.108 408.51 270.618 409.103 270.964 409.87C271.318 410.63 271.494 411.533 271.494 412.58V413.26H264.084ZM264.094 412.01H269.714C269.714 411.417 269.614 410.883 269.414 410.41C269.214 409.93 268.908 409.553 268.494 409.28C268.088 409 267.574 408.86 266.954 408.86C266.308 408.86 265.771 409.017 265.344 409.33C264.924 409.637 264.608 410.033 264.394 410.52C264.188 411 264.088 411.497 264.094 412.01ZM274.034 418V407.66H275.824V409.16C275.991 408.873 276.221 408.603 276.514 408.35C276.814 408.097 277.174 407.893 277.594 407.74C278.021 407.587 278.511 407.51 279.064 407.51C279.717 407.51 280.317 407.64 280.864 407.9C281.417 408.16 281.857 408.567 282.184 409.12C282.517 409.667 282.684 410.373 282.684 411.24V418H280.834V411.42C280.834 410.613 280.621 410.017 280.194 409.63C279.774 409.237 279.227 409.04 278.554 409.04C278.087 409.04 277.651 409.117 277.244 409.27C276.837 409.417 276.507 409.643 276.254 409.95C276.001 410.25 275.874 410.63 275.874 411.09V418H274.034ZM290.186 421.22V407.66H292.026L292.046 409.46C292.166 409.247 292.32 409.023 292.506 408.79C292.7 408.557 292.933 408.34 293.206 408.14C293.486 407.94 293.81 407.777 294.176 407.65C294.55 407.523 294.973 407.46 295.446 407.46C296.273 407.46 297 407.65 297.626 408.03C298.26 408.403 298.753 408.977 299.106 409.75C299.46 410.523 299.636 411.503 299.636 412.69C299.636 413.877 299.463 414.88 299.116 415.7C298.776 416.513 298.283 417.133 297.636 417.56C296.99 417.987 296.21 418.2 295.296 418.2C294.836 418.2 294.426 418.133 294.066 418C293.713 417.873 293.403 417.707 293.136 417.5C292.876 417.287 292.656 417.06 292.476 416.82C292.303 416.58 292.16 416.35 292.046 416.13V421.22H290.186ZM294.946 416.76C295.8 416.76 296.496 416.437 297.036 415.79C297.576 415.137 297.846 414.123 297.846 412.75C297.846 411.57 297.6 410.633 297.106 409.94C296.613 409.247 295.893 408.9 294.946 408.9C293.986 408.9 293.26 409.257 292.766 409.97C292.273 410.677 292.026 411.603 292.026 412.75C292.026 413.49 292.136 414.163 292.356 414.77C292.576 415.377 292.903 415.86 293.336 416.22C293.77 416.58 294.306 416.76 294.946 416.76ZM302.061 418V407.66H303.821V409.65C303.995 409.157 304.238 408.75 304.551 408.43C304.865 408.103 305.221 407.86 305.621 407.7C306.028 407.54 306.448 407.46 306.881 407.46C307.035 407.46 307.185 407.47 307.331 407.49C307.478 407.51 307.591 407.543 307.671 407.59V409.38C307.571 409.333 307.441 409.303 307.281 409.29C307.128 409.27 306.998 409.26 306.891 409.26C306.478 409.233 306.091 409.26 305.731 409.34C305.371 409.413 305.055 409.543 304.781 409.73C304.508 409.917 304.291 410.163 304.131 410.47C303.978 410.77 303.901 411.137 303.901 411.57V418H302.061ZM313.71 418.2C312.757 418.2 311.924 417.997 311.21 417.59C310.497 417.177 309.944 416.573 309.55 415.78C309.157 414.987 308.96 414.017 308.96 412.87C308.96 411.79 309.144 410.843 309.51 410.03C309.877 409.217 310.414 408.587 311.12 408.14C311.834 407.687 312.697 407.46 313.71 407.46C314.664 407.46 315.49 407.67 316.19 408.09C316.897 408.503 317.444 409.113 317.83 409.92C318.217 410.727 318.41 411.71 318.41 412.87C318.41 413.923 318.23 414.85 317.87 415.65C317.517 416.45 316.99 417.077 316.29 417.53C315.597 417.977 314.737 418.2 313.71 418.2ZM313.71 416.74C314.33 416.74 314.854 416.583 315.28 416.27C315.707 415.957 316.03 415.507 316.25 414.92C316.47 414.333 316.58 413.637 316.58 412.83C316.58 412.09 316.484 411.427 316.29 410.84C316.097 410.247 315.787 409.777 315.36 409.43C314.94 409.083 314.39 408.91 313.71 408.91C313.084 408.91 312.554 409.067 312.12 409.38C311.687 409.687 311.357 410.133 311.13 410.72C310.91 411.307 310.8 412.01 310.8 412.83C310.8 413.557 310.9 414.217 311.1 414.81C311.3 415.403 311.614 415.873 312.04 416.22C312.467 416.567 313.024 416.74 313.71 416.74ZM324.951 407.46C325.691 407.46 326.357 407.603 326.951 407.89C327.544 408.17 328.027 408.57 328.401 409.09C328.781 409.61 329.017 410.223 329.111 410.93H327.471C327.411 410.57 327.271 410.24 327.051 409.94C326.837 409.64 326.554 409.4 326.201 409.22C325.847 409.04 325.434 408.95 324.961 408.95C324.074 408.95 323.354 409.27 322.801 409.91C322.247 410.55 321.971 411.53 321.971 412.85C321.971 414.043 322.224 415 322.731 415.72C323.244 416.433 323.997 416.79 324.991 416.79C325.464 416.79 325.874 416.7 326.221 416.52C326.574 416.333 326.857 416.09 327.071 415.79C327.284 415.483 327.421 415.157 327.481 414.81H329.091C329.004 415.503 328.771 416.103 328.391 416.61C328.011 417.117 327.524 417.51 326.931 417.79C326.344 418.063 325.684 418.2 324.951 418.2C324.024 418.2 323.201 417.997 322.481 417.59C321.767 417.183 321.207 416.583 320.801 415.79C320.394 414.997 320.191 414.023 320.191 412.87C320.191 411.79 320.374 410.847 320.741 410.04C321.114 409.227 321.654 408.593 322.361 408.14C323.074 407.687 323.937 407.46 324.951 407.46ZM332.932 413.26C332.932 413.913 333.039 414.507 333.252 415.04C333.472 415.567 333.802 415.987 334.242 416.3C334.689 416.613 335.245 416.77 335.912 416.77C336.572 416.77 337.139 416.617 337.612 416.31C338.092 416.003 338.399 415.56 338.532 414.98H340.282C340.155 415.68 339.875 416.27 339.442 416.75C339.009 417.23 338.485 417.593 337.872 417.84C337.259 418.08 336.619 418.2 335.952 418.2C334.985 418.2 334.135 417.99 333.402 417.57C332.669 417.15 332.095 416.547 331.682 415.76C331.269 414.973 331.062 414.03 331.062 412.93C331.062 411.843 331.249 410.89 331.622 410.07C331.995 409.25 332.535 408.61 333.242 408.15C333.955 407.69 334.812 407.46 335.812 407.46C336.785 407.46 337.609 407.67 338.282 408.09C338.955 408.51 339.465 409.103 339.812 409.87C340.165 410.63 340.342 411.533 340.342 412.58V413.26H332.932ZM332.942 412.01H338.562C338.562 411.417 338.462 410.883 338.262 410.41C338.062 409.93 337.755 409.553 337.342 409.28C336.935 409 336.422 408.86 335.802 408.86C335.155 408.86 334.619 409.017 334.192 409.33C333.772 409.637 333.455 410.033 333.242 410.52C333.035 411 332.935 411.497 332.942 412.01ZM346.493 418.2C345.773 418.2 345.103 418.09 344.483 417.87C343.87 417.643 343.36 417.293 342.953 416.82C342.546 416.34 342.29 415.73 342.183 414.99H343.863C343.956 415.397 344.123 415.737 344.363 416.01C344.61 416.277 344.916 416.48 345.283 416.62C345.65 416.753 346.05 416.82 346.483 416.82C347.176 416.82 347.736 416.69 348.163 416.43C348.59 416.17 348.803 415.77 348.803 415.23C348.803 414.85 348.69 414.547 348.463 414.32C348.243 414.087 347.9 413.917 347.433 413.81L345.293 413.28C344.46 413.08 343.793 412.767 343.293 412.34C342.793 411.913 342.543 411.317 342.543 410.55C342.536 409.943 342.68 409.41 342.973 408.95C343.266 408.49 343.706 408.127 344.293 407.86C344.88 407.593 345.61 407.46 346.483 407.46C347.603 407.46 348.506 407.713 349.193 408.22C349.886 408.72 350.246 409.457 350.273 410.43H348.643C348.576 409.937 348.353 409.547 347.973 409.26C347.6 408.967 347.096 408.82 346.463 408.82C345.803 408.82 345.266 408.953 344.853 409.22C344.44 409.48 344.233 409.887 344.233 410.44C344.233 410.807 344.38 411.097 344.673 411.31C344.966 411.517 345.4 411.69 345.973 411.83L348.043 412.35C348.523 412.477 348.916 412.643 349.223 412.85C349.536 413.057 349.783 413.287 349.963 413.54C350.15 413.793 350.28 414.06 350.353 414.34C350.433 414.613 350.473 414.877 350.473 415.13C350.473 415.763 350.313 416.31 349.993 416.77C349.68 417.223 349.226 417.577 348.633 417.83C348.046 418.077 347.333 418.2 346.493 418.2ZM356.571 418.2C355.851 418.2 355.181 418.09 354.561 417.87C353.948 417.643 353.438 417.293 353.031 416.82C352.624 416.34 352.368 415.73 352.261 414.99H353.941C354.034 415.397 354.201 415.737 354.441 416.01C354.688 416.277 354.994 416.48 355.361 416.62C355.728 416.753 356.128 416.82 356.561 416.82C357.254 416.82 357.814 416.69 358.241 416.43C358.668 416.17 358.881 415.77 358.881 415.23C358.881 414.85 358.768 414.547 358.541 414.32C358.321 414.087 357.978 413.917 357.511 413.81L355.371 413.28C354.538 413.08 353.871 412.767 353.371 412.34C352.871 411.913 352.621 411.317 352.621 410.55C352.614 409.943 352.758 409.41 353.051 408.95C353.344 408.49 353.784 408.127 354.371 407.86C354.958 407.593 355.688 407.46 356.561 407.46C357.681 407.46 358.584 407.713 359.271 408.22C359.964 408.72 360.324 409.457 360.351 410.43H358.721C358.654 409.937 358.431 409.547 358.051 409.26C357.678 408.967 357.174 408.82 356.541 408.82C355.881 408.82 355.344 408.953 354.931 409.22C354.518 409.48 354.311 409.887 354.311 410.44C354.311 410.807 354.458 411.097 354.751 411.31C355.044 411.517 355.478 411.69 356.051 411.83L358.121 412.35C358.601 412.477 358.994 412.643 359.301 412.85C359.614 413.057 359.861 413.287 360.041 413.54C360.228 413.793 360.358 414.06 360.431 414.34C360.511 414.613 360.551 414.877 360.551 415.13C360.551 415.763 360.391 416.31 360.071 416.77C359.758 417.223 359.304 417.577 358.711 417.83C358.124 418.077 357.411 418.2 356.571 418.2ZM364.455 413.26C364.455 413.913 364.562 414.507 364.775 415.04C364.995 415.567 365.325 415.987 365.765 416.3C366.212 416.613 366.769 416.77 367.435 416.77C368.095 416.77 368.662 416.617 369.135 416.31C369.615 416.003 369.922 415.56 370.055 414.98H371.805C371.679 415.68 371.399 416.27 370.965 416.75C370.532 417.23 370.009 417.593 369.395 417.84C368.782 418.08 368.142 418.2 367.475 418.2C366.509 418.2 365.659 417.99 364.925 417.57C364.192 417.15 363.619 416.547 363.205 415.76C362.792 414.973 362.585 414.03 362.585 412.93C362.585 411.843 362.772 410.89 363.145 410.07C363.519 409.25 364.059 408.61 364.765 408.15C365.479 407.69 366.335 407.46 367.335 407.46C368.309 407.46 369.132 407.67 369.805 408.09C370.479 408.51 370.989 409.103 371.335 409.87C371.689 410.63 371.865 411.533 371.865 412.58V413.26H364.455ZM364.465 412.01H370.085C370.085 411.417 369.985 410.883 369.785 410.41C369.585 409.93 369.279 409.553 368.865 409.28C368.459 409 367.945 408.86 367.325 408.86C366.679 408.86 366.142 409.017 365.715 409.33C365.295 409.637 364.979 410.033 364.765 410.52C364.559 411 364.459 411.497 364.465 412.01ZM378.135 418.2C376.795 418.2 375.732 417.74 374.945 416.82C374.158 415.9 373.765 414.557 373.765 412.79C373.765 411.717 373.922 410.78 374.235 409.98C374.555 409.18 375.028 408.56 375.655 408.12C376.282 407.68 377.062 407.46 377.995 407.46C378.488 407.46 378.925 407.523 379.305 407.65C379.692 407.777 380.025 407.937 380.305 408.13C380.585 408.323 380.812 408.523 380.985 408.73C381.165 408.937 381.298 409.127 381.385 409.3V403.14H383.245V418H381.835L381.635 415.88C381.568 416.08 381.462 416.313 381.315 416.58C381.168 416.84 380.962 417.097 380.695 417.35C380.428 417.597 380.085 417.8 379.665 417.96C379.252 418.12 378.742 418.2 378.135 418.2ZM378.465 416.78C379.512 416.78 380.258 416.463 380.705 415.83C381.158 415.19 381.385 414.147 381.385 412.7C381.378 411.893 381.275 411.207 381.075 410.64C380.882 410.073 380.575 409.643 380.155 409.35C379.742 409.05 379.192 408.9 378.505 408.9C377.652 408.9 376.958 409.203 376.425 409.81C375.892 410.417 375.625 411.38 375.625 412.7C375.625 413.993 375.865 414.997 376.345 415.71C376.832 416.423 377.538 416.78 378.465 416.78ZM385.87 418V415.64H388.07V418H385.87ZM394.233 405.24V403.54H405.173V405.24H400.763V418H398.903V405.24H394.233ZM407.178 418V403.14H408.978V409.18C409.152 408.893 409.385 408.627 409.678 408.38C409.972 408.127 410.328 407.923 410.748 407.77C411.168 407.61 411.655 407.53 412.208 407.53C412.882 407.53 413.492 407.657 414.038 407.91C414.585 408.157 415.018 408.51 415.338 408.97C415.658 409.43 415.818 409.977 415.818 410.61V418H413.968V410.98C413.968 410.36 413.755 409.883 413.328 409.55C412.908 409.21 412.358 409.04 411.678 409.04C411.218 409.04 410.785 409.117 410.378 409.27C409.972 409.417 409.642 409.643 409.388 409.95C409.142 410.25 409.018 410.633 409.018 411.1V418H407.178ZM420.022 413.26C420.022 413.913 420.129 414.507 420.342 415.04C420.562 415.567 420.892 415.987 421.332 416.3C421.779 416.613 422.335 416.77 423.002 416.77C423.662 416.77 424.229 416.617 424.702 416.31C425.182 416.003 425.489 415.56 425.622 414.98H427.372C427.245 415.68 426.965 416.27 426.532 416.75C426.099 417.23 425.575 417.593 424.962 417.84C424.349 418.08 423.709 418.2 423.042 418.2C422.075 418.2 421.225 417.99 420.492 417.57C419.759 417.15 419.185 416.547 418.772 415.76C418.359 414.973 418.152 414.03 418.152 412.93C418.152 411.843 418.339 410.89 418.712 410.07C419.085 409.25 419.625 408.61 420.332 408.15C421.045 407.69 421.902 407.46 422.902 407.46C423.875 407.46 424.699 407.67 425.372 408.09C426.045 408.51 426.555 409.103 426.902 409.87C427.255 410.63 427.432 411.533 427.432 412.58V413.26H420.022ZM420.032 412.01H425.652C425.652 411.417 425.552 410.883 425.352 410.41C425.152 409.93 424.845 409.553 424.432 409.28C424.025 409 423.512 408.86 422.892 408.86C422.245 408.86 421.709 409.017 421.282 409.33C420.862 409.637 420.545 410.033 420.332 410.52C420.125 411 420.025 411.497 420.032 412.01ZM82.92 437.01H80.59V443.44C80.59 443.807 80.6267 444.077 80.7 444.25C80.78 444.417 80.91 444.523 81.09 444.57C81.2767 444.617 81.53 444.64 81.85 444.64H82.98V445.88C82.8533 445.927 82.66 445.967 82.4 446C82.1467 446.033 81.83 446.05 81.45 446.05C80.7367 446.05 80.1833 445.953 79.79 445.76C79.3967 445.567 79.12 445.28 78.96 444.9C78.8067 444.52 78.73 444.053 78.73 443.5V437.01H77.05V435.66H78.78L79.23 432.65H80.59V435.65H82.92V437.01ZM89.4134 446.2C88.4601 446.2 87.6268 445.997 86.9134 445.59C86.2001 445.177 85.6468 444.573 85.2534 443.78C84.8601 442.987 84.6634 442.017 84.6634 440.87C84.6634 439.79 84.8468 438.843 85.2134 438.03C85.5801 437.217 86.1168 436.587 86.8234 436.14C87.5368 435.687 88.4001 435.46 89.4134 435.46C90.3668 435.46 91.1934 435.67 91.8934 436.09C92.6001 436.503 93.1468 437.113 93.5334 437.92C93.9201 438.727 94.1134 439.71 94.1134 440.87C94.1134 441.923 93.9334 442.85 93.5734 443.65C93.2201 444.45 92.6934 445.077 91.9934 445.53C91.3001 445.977 90.4401 446.2 89.4134 446.2ZM89.4134 444.74C90.0334 444.74 90.5568 444.583 90.9834 444.27C91.4101 443.957 91.7334 443.507 91.9534 442.92C92.1734 442.333 92.2834 441.637 92.2834 440.83C92.2834 440.09 92.1868 439.427 91.9934 438.84C91.8001 438.247 91.4901 437.777 91.0634 437.43C90.6434 437.083 90.0934 436.91 89.4134 436.91C88.7868 436.91 88.2568 437.067 87.8234 437.38C87.3901 437.687 87.0601 438.133 86.8334 438.72C86.6134 439.307 86.5034 440.01 86.5034 440.83C86.5034 441.557 86.6034 442.217 86.8034 442.81C87.0034 443.403 87.3168 443.873 87.7434 444.22C88.1701 444.567 88.7268 444.74 89.4134 444.74ZM101.455 437.01H99.1252V443.44C99.1252 443.807 99.1618 444.077 99.2352 444.25C99.3152 444.417 99.4452 444.523 99.6252 444.57C99.8118 444.617 100.065 444.64 100.385 444.64H101.515V445.88C101.388 445.927 101.195 445.967 100.935 446C100.682 446.033 100.365 446.05 99.9852 446.05C99.2718 446.05 98.7185 445.953 98.3252 445.76C97.9318 445.567 97.6552 445.28 97.4952 444.9C97.3418 444.52 97.2652 444.053 97.2652 443.5V437.01H95.5852V435.66H97.3152L97.7652 432.65H99.1252V435.65H101.455V437.01ZM106.913 446.2C106.247 446.2 105.657 446.083 105.143 445.85C104.63 445.61 104.227 445.267 103.933 444.82C103.647 444.373 103.503 443.833 103.503 443.2C103.503 442.053 103.903 441.2 104.703 440.64C105.503 440.08 106.787 439.78 108.553 439.74L110.403 439.69V438.88C110.403 438.247 110.213 437.747 109.833 437.38C109.453 437.007 108.863 436.82 108.063 436.82C107.47 436.827 106.947 436.967 106.493 437.24C106.047 437.513 105.757 437.96 105.623 438.58H103.993C104.033 437.907 104.223 437.34 104.563 436.88C104.903 436.413 105.377 436.06 105.983 435.82C106.597 435.58 107.32 435.46 108.153 435.46C109.053 435.46 109.8 435.587 110.393 435.84C110.993 436.093 111.44 436.467 111.733 436.96C112.033 437.453 112.183 438.06 112.183 438.78V446H110.603L110.473 444.06C110.073 444.867 109.563 445.427 108.943 445.74C108.33 446.047 107.653 446.2 106.913 446.2ZM107.473 444.87C107.82 444.87 108.163 444.807 108.503 444.68C108.85 444.553 109.167 444.383 109.453 444.17C109.74 443.95 109.967 443.707 110.133 443.44C110.307 443.167 110.397 442.887 110.403 442.6V440.83L108.863 440.86C108.077 440.873 107.417 440.953 106.883 441.1C106.357 441.247 105.96 441.477 105.693 441.79C105.433 442.103 105.303 442.513 105.303 443.02C105.303 443.6 105.503 444.053 105.903 444.38C106.31 444.707 106.833 444.87 107.473 444.87ZM117.953 446.13C117.393 446.13 116.939 446.053 116.593 445.9C116.253 445.747 115.989 445.54 115.803 445.28C115.623 445.02 115.499 444.723 115.433 444.39C115.373 444.05 115.343 443.7 115.343 443.34V431.14H117.163V443.16C117.163 443.68 117.263 444.07 117.463 444.33C117.669 444.59 117.956 444.733 118.323 444.76L118.883 444.77V445.97C118.729 446.017 118.569 446.053 118.403 446.08C118.236 446.113 118.086 446.13 117.953 446.13ZM128.769 446.2C128.102 446.2 127.512 446.083 126.999 445.85C126.486 445.61 126.082 445.267 125.789 444.82C125.502 444.373 125.359 443.833 125.359 443.2C125.359 442.053 125.759 441.2 126.559 440.64C127.359 440.08 128.642 439.78 130.409 439.74L132.259 439.69V438.88C132.259 438.247 132.069 437.747 131.689 437.38C131.309 437.007 130.719 436.82 129.919 436.82C129.326 436.827 128.802 436.967 128.349 437.24C127.902 437.513 127.612 437.96 127.479 438.58H125.849C125.889 437.907 126.079 437.34 126.419 436.88C126.759 436.413 127.232 436.06 127.839 435.82C128.452 435.58 129.176 435.46 130.009 435.46C130.909 435.46 131.656 435.587 132.249 435.84C132.849 436.093 133.296 436.467 133.589 436.96C133.889 437.453 134.039 438.06 134.039 438.78V446H132.459L132.329 444.06C131.929 444.867 131.419 445.427 130.799 445.74C130.186 446.047 129.509 446.2 128.769 446.2ZM129.329 444.87C129.676 444.87 130.019 444.807 130.359 444.68C130.706 444.553 131.022 444.383 131.309 444.17C131.596 443.95 131.822 443.707 131.989 443.44C132.162 443.167 132.252 442.887 132.259 442.6V440.83L130.719 440.86C129.932 440.873 129.272 440.953 128.739 441.1C128.212 441.247 127.816 441.477 127.549 441.79C127.289 442.103 127.159 442.513 127.159 443.02C127.159 443.6 127.359 444.053 127.759 444.38C128.166 444.707 128.689 444.87 129.329 444.87ZM137.198 446V435.66H138.978V437.16C139.265 436.707 139.658 436.31 140.158 435.97C140.658 435.63 141.308 435.46 142.108 435.46C142.481 435.46 142.861 435.523 143.248 435.65C143.641 435.777 144.001 435.967 144.328 436.22C144.655 436.473 144.908 436.783 145.088 437.15C145.408 436.643 145.841 436.237 146.388 435.93C146.935 435.617 147.551 435.46 148.238 435.46C148.598 435.46 148.975 435.517 149.368 435.63C149.761 435.737 150.125 435.93 150.458 436.21C150.798 436.483 151.075 436.867 151.288 437.36C151.501 437.847 151.608 438.473 151.608 439.24V446H149.748V439.42C149.748 438.793 149.648 438.31 149.448 437.97C149.248 437.623 148.985 437.38 148.658 437.24C148.338 437.1 147.995 437.03 147.628 437.03C147.308 437.03 146.968 437.093 146.608 437.22C146.248 437.347 145.941 437.56 145.688 437.86C145.435 438.16 145.308 438.57 145.308 439.09V446H143.468V438.88C143.468 438.473 143.358 438.133 143.138 437.86C142.925 437.587 142.655 437.38 142.328 437.24C142.008 437.1 141.688 437.03 141.368 437.03C141.015 437.03 140.658 437.1 140.298 437.24C139.945 437.38 139.645 437.603 139.398 437.91C139.158 438.21 139.038 438.603 139.038 439.09V446H137.198ZM158.613 446.2C157.659 446.2 156.826 445.997 156.113 445.59C155.399 445.177 154.846 444.573 154.453 443.78C154.059 442.987 153.863 442.017 153.863 440.87C153.863 439.79 154.046 438.843 154.413 438.03C154.779 437.217 155.316 436.587 156.023 436.14C156.736 435.687 157.599 435.46 158.613 435.46C159.566 435.46 160.393 435.67 161.093 436.09C161.799 436.503 162.346 437.113 162.733 437.92C163.119 438.727 163.313 439.71 163.313 440.87C163.313 441.923 163.133 442.85 162.773 443.65C162.419 444.45 161.893 445.077 161.193 445.53C160.499 445.977 159.639 446.2 158.613 446.2ZM158.613 444.74C159.233 444.74 159.756 444.583 160.183 444.27C160.609 443.957 160.933 443.507 161.153 442.92C161.373 442.333 161.483 441.637 161.483 440.83C161.483 440.09 161.386 439.427 161.193 438.84C160.999 438.247 160.689 437.777 160.263 437.43C159.843 437.083 159.293 436.91 158.613 436.91C157.986 436.91 157.456 437.067 157.023 437.38C156.589 437.687 156.259 438.133 156.033 438.72C155.813 439.307 155.703 440.01 155.703 440.83C155.703 441.557 155.803 442.217 156.003 442.81C156.203 443.403 156.516 443.873 156.943 444.22C157.369 444.567 157.926 444.74 158.613 444.74ZM169.377 446.2C168.837 446.193 168.327 446.117 167.847 445.97C167.374 445.817 166.954 445.593 166.587 445.3C166.22 445.007 165.93 444.643 165.717 444.21C165.51 443.77 165.407 443.26 165.407 442.68V435.66H167.257V442.49C167.257 443.163 167.464 443.71 167.877 444.13C168.297 444.55 168.927 444.76 169.767 444.76C170.527 444.76 171.137 444.563 171.597 444.17C172.064 443.77 172.297 443.177 172.297 442.39V435.66H174.137V446H172.667L172.477 444.02C172.35 444.54 172.134 444.96 171.827 445.28C171.527 445.6 171.164 445.837 170.737 445.99C170.317 446.137 169.864 446.207 169.377 446.2ZM177.139 446V435.66H178.929V437.16C179.096 436.873 179.326 436.603 179.619 436.35C179.919 436.097 180.279 435.893 180.699 435.74C181.126 435.587 181.616 435.51 182.169 435.51C182.823 435.51 183.423 435.64 183.969 435.9C184.523 436.16 184.963 436.567 185.289 437.12C185.623 437.667 185.789 438.373 185.789 439.24V446H183.939V439.42C183.939 438.613 183.726 438.017 183.299 437.63C182.879 437.237 182.333 437.04 181.659 437.04C181.193 437.04 180.756 437.117 180.349 437.27C179.943 437.417 179.613 437.643 179.359 437.95C179.106 438.25 178.979 438.63 178.979 439.09V446H177.139ZM193.447 437.01H191.117V443.44C191.117 443.807 191.154 444.077 191.227 444.25C191.307 444.417 191.437 444.523 191.617 444.57C191.804 444.617 192.057 444.64 192.377 444.64H193.507V445.88C193.381 445.927 193.187 445.967 192.927 446C192.674 446.033 192.357 446.05 191.977 446.05C191.264 446.05 190.711 445.953 190.317 445.76C189.924 445.567 189.647 445.28 189.487 444.9C189.334 444.52 189.257 444.053 189.257 443.5V437.01H187.577V435.66H189.307L189.757 432.65H191.117V435.65H193.447V437.01ZM204.19 446.2C202.85 446.2 201.786 445.74 201 444.82C200.213 443.9 199.82 442.557 199.82 440.79C199.82 439.717 199.976 438.78 200.29 437.98C200.61 437.18 201.083 436.56 201.71 436.12C202.336 435.68 203.116 435.46 204.05 435.46C204.543 435.46 204.98 435.523 205.36 435.65C205.746 435.777 206.08 435.937 206.36 436.13C206.64 436.323 206.866 436.523 207.04 436.73C207.22 436.937 207.353 437.127 207.44 437.3V431.14H209.3V446H207.89L207.69 443.88C207.623 444.08 207.516 444.313 207.37 444.58C207.223 444.84 207.016 445.097 206.75 445.35C206.483 445.597 206.14 445.8 205.72 445.96C205.306 446.12 204.796 446.2 204.19 446.2ZM204.52 444.78C205.566 444.78 206.313 444.463 206.76 443.83C207.213 443.19 207.44 442.147 207.44 440.7C207.433 439.893 207.33 439.207 207.13 438.64C206.936 438.073 206.63 437.643 206.21 437.35C205.796 437.05 205.246 436.9 204.56 436.9C203.706 436.9 203.013 437.203 202.48 437.81C201.946 438.417 201.68 439.38 201.68 440.7C201.68 441.993 201.92 442.997 202.4 443.71C202.886 444.423 203.593 444.78 204.52 444.78ZM213.674 441.26C213.674 441.913 213.781 442.507 213.994 443.04C214.214 443.567 214.544 443.987 214.984 444.3C215.431 444.613 215.988 444.77 216.654 444.77C217.314 444.77 217.881 444.617 218.354 444.31C218.834 444.003 219.141 443.56 219.274 442.98H221.024C220.898 443.68 220.618 444.27 220.184 444.75C219.751 445.23 219.228 445.593 218.614 445.84C218.001 446.08 217.361 446.2 216.694 446.2C215.728 446.2 214.878 445.99 214.144 445.57C213.411 445.15 212.838 444.547 212.424 443.76C212.011 442.973 211.804 442.03 211.804 440.93C211.804 439.843 211.991 438.89 212.364 438.07C212.738 437.25 213.278 436.61 213.984 436.15C214.698 435.69 215.554 435.46 216.554 435.46C217.528 435.46 218.351 435.67 219.024 436.09C219.698 436.51 220.208 437.103 220.554 437.87C220.908 438.63 221.084 439.533 221.084 440.58V441.26H213.674ZM213.684 440.01H219.304C219.304 439.417 219.204 438.883 219.004 438.41C218.804 437.93 218.498 437.553 218.084 437.28C217.678 437 217.164 436.86 216.544 436.86C215.898 436.86 215.361 437.017 214.934 437.33C214.514 437.637 214.198 438.033 213.984 438.52C213.778 439 213.678 439.497 213.684 440.01ZM227.354 446.2C226.014 446.2 224.95 445.74 224.164 444.82C223.377 443.9 222.984 442.557 222.984 440.79C222.984 439.717 223.14 438.78 223.454 437.98C223.774 437.18 224.247 436.56 224.874 436.12C225.5 435.68 226.28 435.46 227.214 435.46C227.707 435.46 228.144 435.523 228.524 435.65C228.91 435.777 229.244 435.937 229.524 436.13C229.804 436.323 230.03 436.523 230.204 436.73C230.384 436.937 230.517 437.127 230.604 437.3V431.14H232.464V446H231.054L230.854 443.88C230.787 444.08 230.68 444.313 230.534 444.58C230.387 444.84 230.18 445.097 229.914 445.35C229.647 445.597 229.304 445.8 228.884 445.96C228.47 446.12 227.96 446.2 227.354 446.2ZM227.684 444.78C228.73 444.78 229.477 444.463 229.924 443.83C230.377 443.19 230.604 442.147 230.604 440.7C230.597 439.893 230.494 439.207 230.294 438.64C230.1 438.073 229.794 437.643 229.374 437.35C228.96 437.05 228.41 436.9 227.724 436.9C226.87 436.9 226.177 437.203 225.644 437.81C225.11 438.417 224.844 439.38 224.844 440.7C224.844 441.993 225.084 442.997 225.564 443.71C226.05 444.423 226.757 444.78 227.684 444.78ZM239.318 446.2C238.778 446.193 238.268 446.117 237.788 445.97C237.315 445.817 236.895 445.593 236.528 445.3C236.162 445.007 235.872 444.643 235.658 444.21C235.452 443.77 235.348 443.26 235.348 442.68V435.66H237.198V442.49C237.198 443.163 237.405 443.71 237.818 444.13C238.238 444.55 238.868 444.76 239.708 444.76C240.468 444.76 241.078 444.563 241.538 444.17C242.005 443.77 242.238 443.177 242.238 442.39V435.66H244.078V446H242.608L242.418 444.02C242.292 444.54 242.075 444.96 241.768 445.28C241.468 445.6 241.105 445.837 240.678 445.99C240.258 446.137 239.805 446.207 239.318 446.2ZM251.084 435.46C251.824 435.46 252.49 435.603 253.084 435.89C253.677 436.17 254.16 436.57 254.534 437.09C254.914 437.61 255.15 438.223 255.244 438.93H253.604C253.544 438.57 253.404 438.24 253.184 437.94C252.97 437.64 252.687 437.4 252.334 437.22C251.98 437.04 251.567 436.95 251.094 436.95C250.207 436.95 249.487 437.27 248.934 437.91C248.38 438.55 248.104 439.53 248.104 440.85C248.104 442.043 248.357 443 248.864 443.72C249.377 444.433 250.13 444.79 251.124 444.79C251.597 444.79 252.007 444.7 252.354 444.52C252.707 444.333 252.99 444.09 253.204 443.79C253.417 443.483 253.554 443.157 253.614 442.81H255.224C255.137 443.503 254.904 444.103 254.524 444.61C254.144 445.117 253.657 445.51 253.064 445.79C252.477 446.063 251.817 446.2 251.084 446.2C250.157 446.2 249.334 445.997 248.614 445.59C247.9 445.183 247.34 444.583 246.934 443.79C246.527 442.997 246.324 442.023 246.324 440.87C246.324 439.79 246.507 438.847 246.874 438.04C247.247 437.227 247.787 436.593 248.494 436.14C249.207 435.687 250.07 435.46 251.084 435.46ZM262.666 437.01H260.336V443.44C260.336 443.807 260.373 444.077 260.446 444.25C260.526 444.417 260.656 444.523 260.836 444.57C261.023 444.617 261.276 444.64 261.596 444.64H262.726V445.88C262.599 445.927 262.406 445.967 262.146 446C261.893 446.033 261.576 446.05 261.196 446.05C260.483 446.05 259.929 445.953 259.536 445.76C259.143 445.567 258.866 445.28 258.706 444.9C258.553 444.52 258.476 444.053 258.476 443.5V437.01H256.796V435.66H258.526L258.976 432.65H260.336V435.65H262.666V437.01ZM266.37 441.26C266.37 441.913 266.476 442.507 266.69 443.04C266.91 443.567 267.24 443.987 267.68 444.3C268.126 444.613 268.683 444.77 269.35 444.77C270.01 444.77 270.576 444.617 271.05 444.31C271.53 444.003 271.836 443.56 271.97 442.98H273.72C273.593 443.68 273.313 444.27 272.88 444.75C272.446 445.23 271.923 445.593 271.31 445.84C270.696 446.08 270.056 446.2 269.39 446.2C268.423 446.2 267.573 445.99 266.84 445.57C266.106 445.15 265.533 444.547 265.12 443.76C264.706 442.973 264.5 442.03 264.5 440.93C264.5 439.843 264.686 438.89 265.06 438.07C265.433 437.25 265.973 436.61 266.68 436.15C267.393 435.69 268.25 435.46 269.25 435.46C270.223 435.46 271.046 435.67 271.72 436.09C272.393 436.51 272.903 437.103 273.25 437.87C273.603 438.63 273.78 439.533 273.78 440.58V441.26H266.37ZM266.38 440.01H272C272 439.417 271.9 438.883 271.7 438.41C271.5 437.93 271.193 437.553 270.78 437.28C270.373 437 269.86 436.86 269.24 436.86C268.593 436.86 268.056 437.017 267.63 437.33C267.21 437.637 266.893 438.033 266.68 438.52C266.473 439 266.373 439.497 266.38 440.01ZM280.049 446.2C278.709 446.2 277.646 445.74 276.859 444.82C276.072 443.9 275.679 442.557 275.679 440.79C275.679 439.717 275.836 438.78 276.149 437.98C276.469 437.18 276.942 436.56 277.569 436.12C278.196 435.68 278.976 435.46 279.909 435.46C280.402 435.46 280.839 435.523 281.219 435.65C281.606 435.777 281.939 435.937 282.219 436.13C282.499 436.323 282.726 436.523 282.899 436.73C283.079 436.937 283.212 437.127 283.299 437.3V431.14H285.159V446H283.749L283.549 443.88C283.482 444.08 283.376 444.313 283.229 444.58C283.082 444.84 282.876 445.097 282.609 445.35C282.342 445.597 281.999 445.8 281.579 445.96C281.166 446.12 280.656 446.2 280.049 446.2ZM280.379 444.78C281.426 444.78 282.172 444.463 282.619 443.83C283.072 443.19 283.299 442.147 283.299 440.7C283.292 439.893 283.189 439.207 282.989 438.64C282.796 438.073 282.489 437.643 282.069 437.35C281.656 437.05 281.106 436.9 280.419 436.9C279.566 436.9 278.872 437.203 278.339 437.81C277.806 438.417 277.539 439.38 277.539 440.7C277.539 441.993 277.779 442.997 278.259 443.71C278.746 444.423 279.452 444.78 280.379 444.78ZM298.663 435.66V437.01H296.153V446H294.293V437.01H292.113V435.66H294.293V434.06C294.293 433.24 294.503 432.617 294.923 432.19C295.343 431.757 295.97 431.54 296.803 431.54H298.753L298.763 432.85H297.213C296.793 432.85 296.506 432.963 296.353 433.19C296.2 433.417 296.123 433.76 296.123 434.22V435.66H298.663ZM300.948 446V435.66H302.708V437.65C302.881 437.157 303.125 436.75 303.438 436.43C303.751 436.103 304.108 435.86 304.508 435.7C304.915 435.54 305.335 435.46 305.768 435.46C305.921 435.46 306.071 435.47 306.218 435.49C306.365 435.51 306.478 435.543 306.558 435.59V437.38C306.458 437.333 306.328 437.303 306.168 437.29C306.015 437.27 305.885 437.26 305.778 437.26C305.365 437.233 304.978 437.26 304.618 437.34C304.258 437.413 303.941 437.543 303.668 437.73C303.395 437.917 303.178 438.163 303.018 438.47C302.865 438.77 302.788 439.137 302.788 439.57V446H300.948ZM312.597 446.2C311.644 446.2 310.81 445.997 310.097 445.59C309.384 445.177 308.83 444.573 308.437 443.78C308.044 442.987 307.847 442.017 307.847 440.87C307.847 439.79 308.03 438.843 308.397 438.03C308.764 437.217 309.3 436.587 310.007 436.14C310.72 435.687 311.584 435.46 312.597 435.46C313.55 435.46 314.377 435.67 315.077 436.09C315.784 436.503 316.33 437.113 316.717 437.92C317.104 438.727 317.297 439.71 317.297 440.87C317.297 441.923 317.117 442.85 316.757 443.65C316.404 444.45 315.877 445.077 315.177 445.53C314.484 445.977 313.624 446.2 312.597 446.2ZM312.597 444.74C313.217 444.74 313.74 444.583 314.167 444.27C314.594 443.957 314.917 443.507 315.137 442.92C315.357 442.333 315.467 441.637 315.467 440.83C315.467 440.09 315.37 439.427 315.177 438.84C314.984 438.247 314.674 437.777 314.247 437.43C313.827 437.083 313.277 436.91 312.597 436.91C311.97 436.91 311.44 437.067 311.007 437.38C310.574 437.687 310.244 438.133 310.017 438.72C309.797 439.307 309.687 440.01 309.687 440.83C309.687 441.557 309.787 442.217 309.987 442.81C310.187 443.403 310.5 443.873 310.927 444.22C311.354 444.567 311.91 444.74 312.597 444.74ZM319.718 446V435.66H321.498V437.16C321.784 436.707 322.178 436.31 322.678 435.97C323.178 435.63 323.828 435.46 324.628 435.46C325.001 435.46 325.381 435.523 325.768 435.65C326.161 435.777 326.521 435.967 326.848 436.22C327.174 436.473 327.428 436.783 327.608 437.15C327.928 436.643 328.361 436.237 328.908 435.93C329.454 435.617 330.071 435.46 330.758 435.46C331.118 435.46 331.494 435.517 331.888 435.63C332.281 435.737 332.644 435.93 332.978 436.21C333.318 436.483 333.594 436.867 333.808 437.36C334.021 437.847 334.128 438.473 334.128 439.24V446H332.268V439.42C332.268 438.793 332.168 438.31 331.968 437.97C331.768 437.623 331.504 437.38 331.178 437.24C330.858 437.1 330.514 437.03 330.148 437.03C329.828 437.03 329.488 437.093 329.128 437.22C328.768 437.347 328.461 437.56 328.208 437.86C327.954 438.16 327.828 438.57 327.828 439.09V446H325.988V438.88C325.988 438.473 325.878 438.133 325.658 437.86C325.444 437.587 325.174 437.38 324.848 437.24C324.528 437.1 324.208 437.03 323.888 437.03C323.534 437.03 323.178 437.1 322.818 437.24C322.464 437.38 322.164 437.603 321.918 437.91C321.678 438.21 321.558 438.603 321.558 439.09V446H319.718ZM342.534 449.3C341.928 449.3 341.511 449.257 341.284 449.17C341.058 449.083 340.944 449.04 340.944 449.04V447.84L341.994 447.86C342.381 447.873 342.701 447.847 342.954 447.78C343.208 447.713 343.411 447.623 343.564 447.51C343.718 447.397 343.834 447.27 343.914 447.13C344.001 446.99 344.071 446.857 344.124 446.73L344.484 445.75L340.444 435.66H342.314L345.364 443.64L348.394 435.66H350.204L345.844 446.78C345.578 447.433 345.278 447.943 344.944 448.31C344.618 448.677 344.251 448.933 343.844 449.08C343.444 449.227 343.008 449.3 342.534 449.3ZM355.917 446.2C354.964 446.2 354.131 445.997 353.417 445.59C352.704 445.177 352.151 444.573 351.757 443.78C351.364 442.987 351.167 442.017 351.167 440.87C351.167 439.79 351.351 438.843 351.717 438.03C352.084 437.217 352.621 436.587 353.327 436.14C354.041 435.687 354.904 435.46 355.917 435.46C356.871 435.46 357.697 435.67 358.397 436.09C359.104 436.503 359.651 437.113 360.037 437.92C360.424 438.727 360.617 439.71 360.617 440.87C360.617 441.923 360.437 442.85 360.077 443.65C359.724 444.45 359.197 445.077 358.497 445.53C357.804 445.977 356.944 446.2 355.917 446.2ZM355.917 444.74C356.537 444.74 357.061 444.583 357.487 444.27C357.914 443.957 358.237 443.507 358.457 442.92C358.677 442.333 358.787 441.637 358.787 440.83C358.787 440.09 358.691 439.427 358.497 438.84C358.304 438.247 357.994 437.777 357.567 437.43C357.147 437.083 356.597 436.91 355.917 436.91C355.291 436.91 354.761 437.067 354.327 437.38C353.894 437.687 353.564 438.133 353.337 438.72C353.117 439.307 353.007 440.01 353.007 440.83C353.007 441.557 353.107 442.217 353.307 442.81C353.507 443.403 353.821 443.873 354.247 444.22C354.674 444.567 355.231 444.74 355.917 444.74ZM366.682 446.2C366.142 446.193 365.632 446.117 365.152 445.97C364.678 445.817 364.258 445.593 363.892 445.3C363.525 445.007 363.235 444.643 363.022 444.21C362.815 443.77 362.712 443.26 362.712 442.68V435.66H364.562V442.49C364.562 443.163 364.768 443.71 365.182 444.13C365.602 444.55 366.232 444.76 367.072 444.76C367.832 444.76 368.442 444.563 368.902 444.17C369.368 443.77 369.602 443.177 369.602 442.39V435.66H371.442V446H369.972L369.782 444.02C369.655 444.54 369.438 444.96 369.132 445.28C368.832 445.6 368.468 445.837 368.042 445.99C367.622 446.137 367.168 446.207 366.682 446.2ZM374.444 446V435.66H376.204V437.65C376.377 437.157 376.621 436.75 376.934 436.43C377.247 436.103 377.604 435.86 378.004 435.7C378.411 435.54 378.831 435.46 379.264 435.46C379.417 435.46 379.567 435.47 379.714 435.49C379.861 435.51 379.974 435.543 380.054 435.59V437.38C379.954 437.333 379.824 437.303 379.664 437.29C379.511 437.27 379.381 437.26 379.274 437.26C378.861 437.233 378.474 437.26 378.114 437.34C377.754 437.413 377.437 437.543 377.164 437.73C376.891 437.917 376.674 438.163 376.514 438.47C376.361 438.77 376.284 439.137 376.284 439.57V446H374.444ZM80.39 474.2C79.7233 474.2 79.1333 474.083 78.62 473.85C78.1067 473.61 77.7033 473.267 77.41 472.82C77.1233 472.373 76.98 471.833 76.98 471.2C76.98 470.053 77.38 469.2 78.18 468.64C78.98 468.08 80.2633 467.78 82.03 467.74L83.88 467.69V466.88C83.88 466.247 83.69 465.747 83.31 465.38C82.93 465.007 82.34 464.82 81.54 464.82C80.9467 464.827 80.4233 464.967 79.97 465.24C79.5233 465.513 79.2333 465.96 79.1 466.58H77.47C77.51 465.907 77.7 465.34 78.04 464.88C78.38 464.413 78.8533 464.06 79.46 463.82C80.0733 463.58 80.7967 463.46 81.63 463.46C82.53 463.46 83.2767 463.587 83.87 463.84C84.47 464.093 84.9167 464.467 85.21 464.96C85.51 465.453 85.66 466.06 85.66 466.78V474H84.08L83.95 472.06C83.55 472.867 83.04 473.427 82.42 473.74C81.8067 474.047 81.13 474.2 80.39 474.2ZM80.95 472.87C81.2967 472.87 81.64 472.807 81.98 472.68C82.3267 472.553 82.6433 472.383 82.93 472.17C83.2167 471.95 83.4433 471.707 83.61 471.44C83.7833 471.167 83.8733 470.887 83.88 470.6V468.83L82.34 468.86C81.5533 468.873 80.8933 468.953 80.36 469.1C79.8333 469.247 79.4367 469.477 79.17 469.79C78.91 470.103 78.78 470.513 78.78 471.02C78.78 471.6 78.98 472.053 79.38 472.38C79.7867 472.707 80.31 472.87 80.95 472.87ZM92.9391 463.46C93.6791 463.46 94.3457 463.603 94.9391 463.89C95.5324 464.17 96.0157 464.57 96.3891 465.09C96.7691 465.61 97.0057 466.223 97.0991 466.93H95.4591C95.3991 466.57 95.2591 466.24 95.0391 465.94C94.8257 465.64 94.5424 465.4 94.1891 465.22C93.8357 465.04 93.4224 464.95 92.9491 464.95C92.0624 464.95 91.3424 465.27 90.7891 465.91C90.2357 466.55 89.9591 467.53 89.9591 468.85C89.9591 470.043 90.2124 471 90.7191 471.72C91.2324 472.433 91.9857 472.79 92.9791 472.79C93.4524 472.79 93.8624 472.7 94.2091 472.52C94.5624 472.333 94.8457 472.09 95.0591 471.79C95.2724 471.483 95.4091 471.157 95.4691 470.81H97.0791C96.9924 471.503 96.7591 472.103 96.3791 472.61C95.9991 473.117 95.5124 473.51 94.9191 473.79C94.3324 474.063 93.6724 474.2 92.9391 474.2C92.0124 474.2 91.1891 473.997 90.4691 473.59C89.7557 473.183 89.1957 472.583 88.7891 471.79C88.3824 470.997 88.1791 470.023 88.1791 468.87C88.1791 467.79 88.3624 466.847 88.7291 466.04C89.1024 465.227 89.6424 464.593 90.3491 464.14C91.0624 463.687 91.9257 463.46 92.9391 463.46ZM103.72 463.46C104.46 463.46 105.127 463.603 105.72 463.89C106.314 464.17 106.797 464.57 107.17 465.09C107.55 465.61 107.787 466.223 107.88 466.93H106.24C106.18 466.57 106.04 466.24 105.82 465.94C105.607 465.64 105.324 465.4 104.97 465.22C104.617 465.04 104.204 464.95 103.73 464.95C102.844 464.95 102.124 465.27 101.57 465.91C101.017 466.55 100.74 467.53 100.74 468.85C100.74 470.043 100.994 471 101.5 471.72C102.014 472.433 102.767 472.79 103.76 472.79C104.234 472.79 104.644 472.7 104.99 472.52C105.344 472.333 105.627 472.09 105.84 471.79C106.054 471.483 106.19 471.157 106.25 470.81H107.86C107.774 471.503 107.54 472.103 107.16 472.61C106.78 473.117 106.294 473.51 105.7 473.79C105.114 474.063 104.454 474.2 103.72 474.2C102.794 474.2 101.97 473.997 101.25 473.59C100.537 473.183 99.977 472.583 99.5703 471.79C99.1636 470.997 98.9603 470.023 98.9603 468.87C98.9603 467.79 99.1436 466.847 99.5103 466.04C99.8836 465.227 100.424 464.593 101.13 464.14C101.844 463.687 102.707 463.46 103.72 463.46ZM114.492 474.2C113.538 474.2 112.705 473.997 111.992 473.59C111.278 473.177 110.725 472.573 110.332 471.78C109.938 470.987 109.742 470.017 109.742 468.87C109.742 467.79 109.925 466.843 110.292 466.03C110.658 465.217 111.195 464.587 111.902 464.14C112.615 463.687 113.478 463.46 114.492 463.46C115.445 463.46 116.272 463.67 116.972 464.09C117.678 464.503 118.225 465.113 118.612 465.92C118.998 466.727 119.192 467.71 119.192 468.87C119.192 469.923 119.012 470.85 118.652 471.65C118.298 472.45 117.772 473.077 117.072 473.53C116.378 473.977 115.518 474.2 114.492 474.2ZM114.492 472.74C115.112 472.74 115.635 472.583 116.062 472.27C116.488 471.957 116.812 471.507 117.032 470.92C117.252 470.333 117.362 469.637 117.362 468.83C117.362 468.09 117.265 467.427 117.072 466.84C116.878 466.247 116.568 465.777 116.142 465.43C115.722 465.083 115.172 464.91 114.492 464.91C113.865 464.91 113.335 465.067 112.902 465.38C112.468 465.687 112.138 466.133 111.912 466.72C111.692 467.307 111.582 468.01 111.582 468.83C111.582 469.557 111.682 470.217 111.882 470.81C112.082 471.403 112.395 471.873 112.822 472.22C113.248 472.567 113.805 472.74 114.492 472.74ZM125.256 474.2C124.716 474.193 124.206 474.117 123.726 473.97C123.252 473.817 122.832 473.593 122.466 473.3C122.099 473.007 121.809 472.643 121.596 472.21C121.389 471.77 121.286 471.26 121.286 470.68V463.66H123.136V470.49C123.136 471.163 123.342 471.71 123.756 472.13C124.176 472.55 124.806 472.76 125.646 472.76C126.406 472.76 127.016 472.563 127.476 472.17C127.942 471.77 128.176 471.177 128.176 470.39V463.66H130.016V474H128.546L128.356 472.02C128.229 472.54 128.012 472.96 127.706 473.28C127.406 473.6 127.042 473.837 126.616 473.99C126.196 474.137 125.742 474.207 125.256 474.2ZM133.018 474V463.66H134.808V465.16C134.975 464.873 135.205 464.603 135.498 464.35C135.798 464.097 136.158 463.893 136.578 463.74C137.005 463.587 137.495 463.51 138.048 463.51C138.702 463.51 139.302 463.64 139.848 463.9C140.402 464.16 140.842 464.567 141.168 465.12C141.502 465.667 141.668 466.373 141.668 467.24V474H139.818V467.42C139.818 466.613 139.605 466.017 139.178 465.63C138.758 465.237 138.212 465.04 137.538 465.04C137.072 465.04 136.635 465.117 136.228 465.27C135.822 465.417 135.492 465.643 135.238 465.95C134.985 466.25 134.858 466.63 134.858 467.09V474H133.018ZM149.326 465.01H146.996V471.44C146.996 471.807 147.033 472.077 147.106 472.25C147.186 472.417 147.316 472.523 147.496 472.57C147.683 472.617 147.936 472.64 148.256 472.64H149.386V473.88C149.26 473.927 149.066 473.967 148.806 474C148.553 474.033 148.236 474.05 147.856 474.05C147.143 474.05 146.59 473.953 146.196 473.76C145.803 473.567 145.526 473.28 145.366 472.9C145.213 472.52 145.136 472.053 145.136 471.5V465.01H143.456V463.66H145.186L145.636 460.65H146.996V463.65H149.326V465.01ZM158.593 463.66V474H156.803V463.66H158.593ZM158.633 459.55V461.47H156.743V459.55H158.633ZM165.516 474.2C164.796 474.2 164.126 474.09 163.506 473.87C162.893 473.643 162.383 473.293 161.976 472.82C161.57 472.34 161.313 471.73 161.206 470.99H162.886C162.98 471.397 163.146 471.737 163.386 472.01C163.633 472.277 163.94 472.48 164.306 472.62C164.673 472.753 165.073 472.82 165.506 472.82C166.2 472.82 166.76 472.69 167.186 472.43C167.613 472.17 167.826 471.77 167.826 471.23C167.826 470.85 167.713 470.547 167.486 470.32C167.266 470.087 166.923 469.917 166.456 469.81L164.316 469.28C163.483 469.08 162.816 468.767 162.316 468.34C161.816 467.913 161.566 467.317 161.566 466.55C161.56 465.943 161.703 465.41 161.996 464.95C162.29 464.49 162.73 464.127 163.316 463.86C163.903 463.593 164.633 463.46 165.506 463.46C166.626 463.46 167.53 463.713 168.216 464.22C168.91 464.72 169.27 465.457 169.296 466.43H167.666C167.6 465.937 167.376 465.547 166.996 465.26C166.623 464.967 166.12 464.82 165.486 464.82C164.826 464.82 164.29 464.953 163.876 465.22C163.463 465.48 163.256 465.887 163.256 466.44C163.256 466.807 163.403 467.097 163.696 467.31C163.99 467.517 164.423 467.69 164.996 467.83L167.066 468.35C167.546 468.477 167.94 468.643 168.246 468.85C168.56 469.057 168.806 469.287 168.986 469.54C169.173 469.793 169.303 470.06 169.376 470.34C169.456 470.613 169.496 470.877 169.496 471.13C169.496 471.763 169.336 472.31 169.016 472.77C168.703 473.223 168.25 473.577 167.656 473.83C167.07 474.077 166.356 474.2 165.516 474.2ZM187.979 468.49C187.979 469.657 187.789 470.67 187.409 471.53C187.029 472.383 186.412 473.043 185.559 473.51C184.712 473.97 183.589 474.2 182.189 474.2C180.782 474.2 179.656 473.967 178.809 473.5C177.962 473.027 177.349 472.357 176.969 471.49C176.596 470.623 176.409 469.59 176.409 468.39V459.54H179.379V468.61C179.379 469.69 179.639 470.48 180.159 470.98C180.679 471.473 181.356 471.72 182.189 471.72C182.742 471.72 183.232 471.613 183.659 471.4C184.086 471.18 184.419 470.843 184.659 470.39C184.906 469.93 185.029 469.337 185.029 468.61V459.54H187.979V468.49ZM196.312 474.2C195.598 474.2 194.898 474.11 194.212 473.93C193.525 473.75 192.898 473.48 192.332 473.12C191.765 472.76 191.295 472.31 190.922 471.77C190.555 471.23 190.335 470.597 190.262 469.87H193.252C193.352 470.31 193.542 470.68 193.822 470.98C194.102 471.28 194.455 471.51 194.882 471.67C195.308 471.83 195.782 471.91 196.302 471.91C196.835 471.91 197.322 471.843 197.762 471.71C198.202 471.577 198.555 471.377 198.822 471.11C199.088 470.837 199.222 470.497 199.222 470.09C199.222 469.723 199.112 469.423 198.892 469.19C198.678 468.957 198.388 468.767 198.022 468.62C197.655 468.473 197.238 468.353 196.772 468.26L194.272 467.75C193.178 467.543 192.312 467.11 191.672 466.45C191.032 465.783 190.702 464.897 190.682 463.79C190.675 462.883 190.915 462.1 191.402 461.44C191.895 460.773 192.562 460.26 193.402 459.9C194.248 459.54 195.195 459.36 196.242 459.36C197.488 459.36 198.535 459.557 199.382 459.95C200.235 460.337 200.882 460.863 201.322 461.53C201.768 462.19 201.998 462.927 202.012 463.74H199.082C199.028 463.233 198.875 462.83 198.622 462.53C198.368 462.23 198.042 462.013 197.642 461.88C197.248 461.747 196.798 461.68 196.292 461.68C195.905 461.68 195.552 461.723 195.232 461.81C194.918 461.897 194.652 462.02 194.432 462.18C194.212 462.333 194.042 462.517 193.922 462.73C193.802 462.943 193.742 463.183 193.742 463.45C193.742 463.87 193.882 464.21 194.162 464.47C194.442 464.73 194.965 464.943 195.732 465.11L198.212 465.62C199.098 465.793 199.802 466.05 200.322 466.39C200.848 466.73 201.242 467.113 201.502 467.54C201.768 467.967 201.942 468.403 202.022 468.85C202.108 469.29 202.152 469.697 202.152 470.07C202.152 470.85 201.905 471.553 201.412 472.18C200.925 472.8 200.245 473.293 199.372 473.66C198.498 474.02 197.478 474.2 196.312 474.2ZM214.437 474.2C212.704 474.2 211.297 473.853 210.217 473.16C209.137 472.46 208.517 471.383 208.357 469.93L211.397 469.87C211.557 470.53 211.901 471.033 212.427 471.38C212.961 471.72 213.627 471.89 214.427 471.89C214.907 471.89 215.331 471.813 215.697 471.66C216.071 471.5 216.364 471.287 216.577 471.02C216.791 470.747 216.897 470.437 216.897 470.09C216.897 469.557 216.727 469.16 216.387 468.9C216.047 468.633 215.524 468.42 214.817 468.26L212.447 467.75C211.347 467.53 210.464 467.093 209.797 466.44C209.137 465.78 208.801 464.897 208.787 463.79C208.781 462.883 209.024 462.1 209.517 461.44C210.017 460.773 210.694 460.26 211.547 459.9C212.407 459.54 213.371 459.36 214.437 459.36C215.531 459.36 216.474 459.557 217.267 459.95C218.067 460.337 218.681 460.86 219.107 461.52C219.541 462.173 219.751 462.897 219.737 463.69L216.787 463.74C216.694 463.1 216.481 462.597 216.147 462.23C215.814 461.863 215.261 461.68 214.487 461.68C214.087 461.68 213.731 461.723 213.417 461.81C213.104 461.897 212.834 462.02 212.607 462.18C212.381 462.333 212.207 462.517 212.087 462.73C211.974 462.943 211.917 463.183 211.917 463.45C211.917 463.87 212.057 464.203 212.337 464.45C212.624 464.69 213.161 464.913 213.947 465.12L216.277 465.69C217.591 466.003 218.537 466.54 219.117 467.3C219.704 468.06 219.997 468.983 219.997 470.07C219.997 470.903 219.767 471.63 219.307 472.25C218.854 472.87 218.211 473.35 217.377 473.69C216.544 474.03 215.564 474.2 214.437 474.2ZM213.187 457.47H215.717V460.07H213.187V457.47ZM213.137 473.31H215.657V475.91H213.137V473.31ZM224.42 474V463.17H221.84V461.52C222.667 461.52 223.334 461.443 223.84 461.29C224.354 461.13 224.737 460.903 224.99 460.61C225.244 460.31 225.394 459.953 225.44 459.54H227.38V474H224.42ZM235.995 459.34C237.715 459.34 239.072 459.983 240.065 461.27C241.058 462.55 241.555 464.393 241.555 466.8C241.555 469.193 241.065 471.03 240.085 472.31C239.105 473.583 237.742 474.22 235.995 474.22C234.242 474.22 232.872 473.583 231.885 472.31C230.905 471.037 230.415 469.203 230.415 466.81C230.415 465.21 230.642 463.853 231.095 462.74C231.548 461.627 232.192 460.783 233.025 460.21C233.858 459.63 234.848 459.34 235.995 459.34ZM235.995 471.83C236.855 471.83 237.485 471.447 237.885 470.68C238.285 469.907 238.485 468.617 238.485 466.81C238.485 464.963 238.282 463.64 237.875 462.84C237.468 462.04 236.838 461.64 235.985 461.64C235.132 461.64 234.495 462.043 234.075 462.85C233.662 463.657 233.455 464.977 233.455 466.81C233.455 468.61 233.662 469.897 234.075 470.67C234.488 471.443 235.128 471.83 235.995 471.83ZM249.798 459.54H252.668V468.35H254.898V470.8H252.668V474H249.858L249.868 470.8H243.208V468.4L249.798 459.54ZM245.908 468.35H249.868V463.05L245.908 468.35ZM256.463 474V470.82H259.663V474H256.463ZM267.053 474.22C266.153 474.22 265.313 474.047 264.533 473.7C263.753 473.353 263.117 472.867 262.623 472.24C262.13 471.607 261.853 470.867 261.793 470.02H264.573C264.693 470.58 264.96 471.037 265.373 471.39C265.787 471.737 266.307 471.91 266.933 471.91C267.627 471.91 268.233 471.747 268.753 471.42C269.28 471.093 269.673 470.573 269.933 469.86C270.2 469.147 270.293 468.213 270.213 467.06C270.027 467.413 269.767 467.723 269.433 467.99C269.107 468.25 268.723 468.453 268.283 468.6C267.843 468.74 267.353 468.81 266.813 468.81C265.833 468.81 264.963 468.627 264.203 468.26C263.45 467.887 262.857 467.36 262.423 466.68C261.997 465.993 261.783 465.18 261.783 464.24C261.783 463.293 262.01 462.45 262.463 461.71C262.917 460.97 263.55 460.39 264.363 459.97C265.177 459.55 266.13 459.34 267.223 459.34C268.45 459.34 269.507 459.633 270.393 460.22C271.287 460.8 271.97 461.627 272.443 462.7C272.923 463.767 273.163 465.023 273.163 466.47C273.163 468.197 272.917 469.637 272.423 470.79C271.937 471.937 271.237 472.797 270.323 473.37C269.41 473.937 268.32 474.22 267.053 474.22ZM267.313 466.49C267.72 466.49 268.113 466.4 268.493 466.22C268.88 466.033 269.197 465.8 269.443 465.52C269.69 465.24 269.813 464.95 269.813 464.65C269.82 464.003 269.717 463.45 269.503 462.99C269.297 462.523 269.003 462.167 268.623 461.92C268.25 461.673 267.813 461.55 267.313 461.55C266.853 461.55 266.443 461.657 266.083 461.87C265.723 462.083 265.44 462.383 265.233 462.77C265.027 463.157 264.923 463.603 264.923 464.11C264.923 464.863 265.143 465.45 265.583 465.87C266.023 466.283 266.6 466.49 267.313 466.49ZM280.448 459.34C282.168 459.34 283.525 459.983 284.518 461.27C285.512 462.55 286.008 464.393 286.008 466.8C286.008 469.193 285.518 471.03 284.538 472.31C283.558 473.583 282.195 474.22 280.448 474.22C278.695 474.22 277.325 473.583 276.338 472.31C275.358 471.037 274.868 469.203 274.868 466.81C274.868 465.21 275.095 463.853 275.548 462.74C276.002 461.627 276.645 460.783 277.478 460.21C278.312 459.63 279.302 459.34 280.448 459.34ZM280.448 471.83C281.308 471.83 281.938 471.447 282.338 470.68C282.738 469.907 282.938 468.617 282.938 466.81C282.938 464.963 282.735 463.64 282.328 462.84C281.922 462.04 281.292 461.64 280.438 461.64C279.585 461.64 278.948 462.043 278.528 462.85C278.115 463.657 277.908 464.977 277.908 466.81C277.908 468.61 278.115 469.897 278.528 470.67C278.942 471.443 279.582 471.83 280.448 471.83ZM287.979 474V471.64H290.179V474H287.979Z" fill="#36536B"/>
</g>
</g>
<defs>
<filter id="filter0_d_0_4910" x="34" y="324" width="496" height="234" filterUnits="userSpaceOnUse" color-interpolation-filters="sRGB">
<feFlood flood-opacity="0" result="BackgroundImageFix"/>
<feColorMatrix in="SourceAlpha" type="matrix" values="0 0 0 0 0 0 0 0 0 0 0 0 0 0 0 0 0 0 127 0" result="hardAlpha"/>
<feMorphology radius="10" operator="erode" in="SourceAlpha" result="effect1_dropShadow_0_4910"/>
<feOffset dx="10" dy="10"/>
<feGaussianBlur stdDeviation="12.5"/>
<feColorMatrix type="matrix" values="0 0 0 0 0.212302 0 0 0 0 0.32521 0 0 0 0 0.419299 0 0 0 0.25 0"/>
<feBlend mode="normal" in2="BackgroundImageFix" result="effect1_dropShadow_0_4910"/>
<feBlend mode="normal" in="SourceGraphic" in2="effect1_dropShadow_0_4910" result="shape"/>
</filter>
<linearGradient id="paint0_linear_0_4910" x1="20.0293" y1="0" x2="20.0293" y2="24.6479" gradientUnits="userSpaceOnUse">
<stop stop-color="#454545"/>
<stop offset="0.226279" stop-color="#999999"/>
<stop offset="1" stop-color="white"/>
</linearGradient>
<linearGradient id="paint1_linear_0_4910" x1="520.207" y1="171.495" x2="501.285" y2="171.495" gradientUnits="userSpaceOnUse">
<stop stop-color="white" stop-opacity="0.01"/>
<stop offset="0.222178" stop-color="#BABABA"/>
<stop offset="0.54678" stop-color="white" stop-opacity="0.01"/>
<stop offset="1" stop-color="white" stop-opacity="0.01"/>
</linearGradient>
<linearGradient id="paint2_linear_0_4910" x1="5.13595" y1="170.974" x2="24.0881" y2="170.974" gradientUnits="userSpaceOnUse">
<stop stop-color="white" stop-opacity="0.01"/>
<stop offset="0.222178" stop-color="#BABABA"/>
<stop offset="0.54678" stop-color="white" stop-opacity="0.01"/>
<stop offset="1" stop-color="white" stop-opacity="0.01"/>
</linearGradient>
<linearGradient id="paint3_linear_0_4910" x1="61.8139" y1="49.7778" x2="61.8139" y2="972.538" gradientUnits="userSpaceOnUse">
<stop stop-color="#9CB6CD"/>
<stop offset="0.420564" stop-color="#9AB3CA"/>
<stop offset="0.716592" stop-color="#557496"/>
<stop offset="1" stop-color="#475178"/>
</linearGradient>
<clipPath id="clip0_0_4910">
<rect width="233" height="465" fill="white" transform="translate(30.1484 24.8889) scale(2)"/>
</clipPath>
<clipPath id="clip1_0_4910">
<rect width="218" height="87" fill="white" transform="translate(44 334) scale(2)"/>
</clipPath>
<clipPath id="clip2_0_4910">
<rect width="187" height="11" fill="white" transform="translate(76 366) scale(2)"/>
</clipPath>
</defs>
</svg>
